<svg id="Capa_1" data-name="Capa 1" xmlns="http://www.w3.org/2000/svg" viewBox="0 0 496.34 469.16"><defs><style>.cls-1{fill:#4dcfe0;}.cls-2{fill:#d4e1f4;}</style></defs><title>care-templates-icon</title><path class="cls-1" d="M384.52,202.19c22.47-34.48,30.83-73.15,24-108.67h0c-9.41-47.54-43.89-78.37-88.3-78.37-20.9,0-43.36,7.32-64.26,20.9-21.94-14.11-43.36-20.9-64.78-20.9C146.81,15.15,111.8,46,102.92,94c-12.54,65.83,26.65,153.6,143.68,200.1a32.16,32.16,0,0,0,19.85,0C318.69,272.2,360,240.33,384.52,202.19Z" transform="translate(-7.84 -15.15)"/><path class="cls-2" d="M202.71,354.74l-58-76.8c-4.7-6.79-13.59-11-22.47-11-5.22,0-9.92,1.57-15.15,4.18-12.54,8.36-16.72,24-9.4,37.09l23,41.28L104,352.13,66.35,303.54c0-11.49-1-59-1.57-86.72a28.43,28.43,0,0,0-28.73-27.69h-.52A27.87,27.87,0,0,0,7.84,216.82V330.19a32.47,32.47,0,0,0,9.4,22.46l89.86,93L105.53,476a8.45,8.45,0,0,0,7.32,8.36h.52l94-1a7.45,7.45,0,0,0,7.32-8.36L210,372.51C209.5,366.24,206.89,360.49,202.71,354.74Z" transform="translate(-7.84 -15.15)"/><path class="cls-2" d="M476.47,188.6c-15.67,0-28.21,12-28.73,28.22-.52,27.69-1.57,75.23-1.57,86.72l-37.61,48.59-16.72-2.61,23-40.75c7.32-13.06,3.14-28.74-9.92-37.1-13.59-7.83-29.78-3.65-37.1,6.8l-58.51,76.27c-4.18,5.75-6.79,11.5-7.31,18.29l-4.71,101.88a8.46,8.46,0,0,0,7.32,8.36l94,1h.52a7.45,7.45,0,0,0,7.32-8.36l-1.57-30.3,89.86-93a32.74,32.74,0,0,0,9.4-23.51V216.29C504.69,201.14,492.15,188.6,476.47,188.6Z" transform="translate(-7.84 -15.15)"/></svg>