<svg id="Layer_1" data-name="Layer 1" xmlns="http://www.w3.org/2000/svg" viewBox="0 0 512 512"><defs><style>.cls-1{fill:#ededed;}.cls-2{fill:#455a64;}.cls-3{fill:#00bcd4;}.cls-4{fill:#90a4ae;}.cls-5{fill:#ec407a;}.cls-6{fill:#ffc107;}</style></defs><title>chief-icon</title><path class="cls-1" d="M393,173.67H73a32,32,0,0,0-32,32V611a32,32,0,0,0,32,32H393a32,32,0,0,0,32-32V205.67a32,32,0,0,0-32-32Zm0,0" transform="translate(-41 -131)"/><path class="cls-2" d="M307.67,152.33H269.82a42.44,42.44,0,0,0-73.64,0H158.33a32,32,0,0,0-32,32v21.34A10.67,10.67,0,0,0,137,216.33H329a10.67,10.67,0,0,0,10.67-10.66V184.33a32,32,0,0,0-32-32Zm0,0" transform="translate(-41 -131)"/><path class="cls-3" d="M137,547a21.34,21.34,0,1,1-21.33-21.33A21.33,21.33,0,0,1,137,547Zm0,0" transform="translate(-41 -131)"/><path class="cls-3" d="M137,461.67a21.34,21.34,0,1,1-21.33-21.34A21.33,21.33,0,0,1,137,461.67Zm0,0" transform="translate(-41 -131)"/><path class="cls-3" d="M137,376.33A21.34,21.34,0,1,1,115.67,355,21.33,21.33,0,0,1,137,376.33Zm0,0" transform="translate(-41 -131)"/><path class="cls-3" d="M137,291a21.34,21.34,0,1,1-21.33-21.33A21.33,21.33,0,0,1,137,291Zm0,0" transform="translate(-41 -131)"/><path d="M339.67,387h-160a10.67,10.67,0,1,1,0-21.33h160a10.67,10.67,0,0,1,0,21.33Zm0,0" transform="translate(-41 -131)"/><path d="M371.67,301.67h-192a10.67,10.67,0,1,1,0-21.34h192a10.67,10.67,0,0,1,0,21.34Zm0,0" transform="translate(-41 -131)"/><path d="M265,472.33H179.67a10.67,10.67,0,1,1,0-21.33H265a10.67,10.67,0,1,1,0,21.33Zm0,0" transform="translate(-41 -131)"/><path d="M243.67,557.67h-64a10.67,10.67,0,0,1,0-21.34h64a10.67,10.67,0,0,1,0,21.34Zm0,0" transform="translate(-41 -131)"/><path d="M329,536.33A10.69,10.69,0,0,1,318.33,526c0-.64-1.06-18.31-18.22-35.46s-34.79-18.18-35.54-18.2a10.72,10.72,0,0,1-10.2-11.07A10.5,10.5,0,0,1,265.3,451c1.07,0,26.49,1.07,49.88,24.45s24.42,48.81,24.44,49.88a10.69,10.69,0,0,1-10.34,11Zm0,0" transform="translate(-41 -131)"/><path class="cls-4" d="M329.43,536.55l-83.2,20.69a5.39,5.39,0,0,1-2.56.43,10,10,0,0,1-7.47-3.21,9.78,9.78,0,0,1-2.77-10l20.69-83,10.88.22s22,.64,42.67,21.33S329,525.67,329,525.67Zm0,0" transform="translate(-41 -131)"/><path class="cls-5" d="M553,293.56A54.84,54.84,0,0,1,536.57,333l-29.44,29.43L428.2,283.54l29.44-29.45a54.83,54.83,0,0,1,39.47-16.42A56.08,56.08,0,0,1,553,293.56Zm0,0" transform="translate(-41 -131)"/><path class="cls-6" d="M507.13,362.46,336.46,533.13a8.75,8.75,0,0,1-4.9,2.78l-2.13.64L329,525.67s-.64-22-21.33-42.67S265,461.67,265,461.67l-10.88-.22.64-2.35a8.8,8.8,0,0,1,2.77-4.9L428.2,283.54Zm0,0" transform="translate(-41 -131)"/></svg>