<?xml version="1.0" encoding="iso-8859-1"?>
<!-- Generator: Adobe Illustrator 19.0.0, SVG Export Plug-In . SVG Version: 6.00 Build 0)  -->
<svg version="1.1" id="Capa_1" xmlns="http://www.w3.org/2000/svg" xmlns:xlink="http://www.w3.org/1999/xlink" x="0px" y="0px"
	 viewBox="0 0 494 494" style="enable-background:new 0 0 494 494;" xml:space="preserve">
<g>
	<path style="fill:#ED664C;" d="M485.9,35.15v96.8c0,14.8-12,26.7-26.7,26.7h-18.5l-56,58.5v-58.5h-59.1
		c-14.8,0-26.7-11.9-26.7-26.7v-96.8c0-14.8,11.9-26.7,26.7-26.7h133.6C473.9,8.45,485.9,20.45,485.9,35.15z"/>
	<path style="fill:#ED664C;" d="M279.9,164.25H256H142.7c-0.7,0-1.4,0-2-0.1c-17.8-1-31.8-15.7-31.8-33.7c0-5.2,1.2-10.2,3.4-14.7
		c1.7-3.4,3.9-6.6,6.5-9.2c6.1-6.1,14.5-9.9,23.9-9.9h69.6C249.6,96.65,279.9,126.85,279.9,164.25z"/>
</g>
<path style="fill:#FDC75B;" d="M278.7,243.75c0,11-8.9,19.9-19.9,19.9H256v-39.8h2.8c5.5,0,10.5,2.2,14.1,5.8
	C276.5,233.35,278.7,238.35,278.7,243.75z"/>
<path style="fill:#ED664C;" d="M259.1,445.15c4.3,4.2,6.9,10.1,6.9,16.6s-2.6,12.4-6.9,16.6c-4.3,4.3-10.1,6.9-16.6,6.9
	s-12.4-2.6-16.6-6.9c-4.3-4.3-6.9-10.1-6.9-16.6c0-12.9,10.5-23.5,23.5-23.5C248.9,438.25,254.8,440.85,259.1,445.15z"/>
<g>
	<path style="fill:#FDC75B;" d="M192.4,382.45v0.9l-35.1,34l-32.5-34v-0.9v-23.3l0.4-1.1c9.9,3.3,20.5,5.1,31.5,5.1
		c12.3,0,24-2.2,34.9-6.3l0.9,2.3v23.3H192.4z"/>
	<path style="fill:#FDC75B;" d="M142.7,164.25H256v59.6v39.8c0,42.6-26.8,79-64.5,93.2c-10.9,4.1-22.6,6.3-34.9,6.3
		c-11,0-21.6-1.8-31.5-5.1c-14.8-4.9-28-13.2-38.9-24c-18-18-29.1-42.9-29.1-70.3v-39.9v-19.6c0,0,47.7,7.6,83.5-40.1v-0.1
		C141.4,164.25,142,164.25,142.7,164.25z"/>
</g>
<path style="fill:#ED664C;" d="M140.7,164.15v0.1c-35.8,47.7-83.5,40.1-83.5,40.1v-40.1c0,0,6.8-49.2,55.1-48.5
	c-2.2,4.5-3.4,9.5-3.4,14.7C108.9,148.45,122.9,163.15,140.7,164.15z"/>
<path style="fill:#FDC75B;" d="M57.2,223.85v39.8h-2.8c-11,0-19.9-8.9-19.9-19.9c0-5.5,2.2-10.4,5.8-14.1c3.6-3.6,8.6-5.8,14.1-5.8
	L57.2,223.85L57.2,223.85z"/>
<path d="M325.6,166.85H377v50.3c0,3.3,1.8,6.2,4.9,7.4c1,0.4,1.9,0.6,2.9,0.6c2.1,0,4.2-0.8,5.7-2.4l53.6-55.9h15.1
	c19.1,0,34.8-15.7,34.8-34.8v-96.9c0-19.1-15.6-34.3-34.8-34.3H325.6c-19.1,0-34.6,15.2-34.6,34.3v96.8
	C291,151.15,306.5,166.85,325.6,166.85z M307,35.15c0-10.3,8.3-18.3,18.6-18.3h133.6c10.3,0,18.8,8,18.8,18.3v96.8
	c0,10.3-8.5,18.8-18.8,18.8h-18.5c-2.2,0-4.1,0.8-5.6,2.4l-42.1,44v-38.6c0-4.4-3.9-7.9-8.3-7.9h-59.1c-10.3,0-18.6-8.5-18.6-18.8
	V35.15z"/>
<path d="M338.3,69.85h108.3c4.4,0,8-3.6,8-8s-3.6-8-8-8H338.3c-4.4,0-8,3.6-8,8S333.8,69.85,338.3,69.85z"/>
<path d="M338.3,114.85h66c4.4,0,8-3.6,8-8s-3.6-8-8-8h-66c-4.4,0-8,3.6-8,8S333.8,114.85,338.3,114.85z"/>
<path d="M8,490.55c4.4,0,8-3.6,8-8v-31.2c0-31.8,25-57.8,56-59.8v10.2c-7,1.6-13.5,5.1-18.8,10.4c-7.3,7.3-11.2,16.9-11.2,27.2v42.6
	c0,4.4,3.7,7.9,8.1,7.9h12.2c4.4,0,8-3.6,8-8s-3.6-8-8-8H58v-34.6c0-6,2.4-11.6,6.6-15.9c4.2-4.2,9.7-6.6,15.6-6.6h0.3
	c12.4,0,22.5,10,22.5,22.4v34.7h-7.2c-4.4,0-8,3.6-8,8s3.6,8,8,8H111c4.4,0,8-3.5,8-7.9v-42.6c0-18.6-13-34.1-31-37.7v-9.8h33.4
	l27.6,28.7v51.9c0,4.4,3.6,8,8,8s8-3.6,8-8v-51.8l30.6-28.9H234v39.4c-13,3.5-23.3,15.9-23.3,30.4c0,8.4,3.4,16.3,9.3,22.3
	c6,6,13.9,9.3,22.3,9.3s16.3-3.3,22.3-9.3s9.3-13.9,9.3-22.3c0-8.3-3.6-16.4-9.5-22.2c-4-4-8.5-6.8-14.5-8.2v-39.2
	c29,4.4,51,29.3,51,59.3v31.2c0,4.4,3.6,8,8,8s8-3.6,8-8v-31.2c0-41.9-33.7-75.4-75.6-75.4H200v-14c18-7.9,33-20.3,44.3-36.3
	c11.4-16.1,18.1-34.8,19.4-54.3c13-2.4,23-13.8,23-27.4c0-7.4-2.9-14.4-8.2-19.7c-4-4-9.5-6.6-14.5-7.7v-44.6h15.9
	c4.4,0,8-3.3,8-7.7c0-41.7-33.9-75.3-75.6-75.3h-69.6c-11.2,0-21.7,4.2-29.5,12.1c-2.1,2.1-4,4.4-5.6,6.9
	c-25.6,1.2-40.1,15.4-47.7,27.6c-8.6,13.5-10.6,27.1-10.7,27.7c0,0.4-0.2,0.7-0.2,1.1v52.2c-5,1-10.4,3.7-14.4,7.7
	c-5.2,5.3-8.1,12.3-8.1,19.7c0,13.7,9.9,25.1,22.9,27.4c1.8,25.9,12.8,50,31.3,68.4c10.3,10.3,22.3,18.5,36.3,23.8v12.4H76
	c-41.9,0-76,33.6-76,75.4v31.2C0,486.95,3.6,490.55,8,490.55z M242.4,446.25c4.1,0,8,1.6,11,4.6c2.9,2.8,4.5,6.8,4.5,10.9
	s-1.6,8-4.6,11s-6.8,4.6-11,4.6s-8-1.6-11-4.6c-2.9-2.9-4.5-6.8-4.5-11C227,453.15,233.9,446.25,242.4,446.25z M49,254.45
	c-4-1.9-6.6-6-6.6-10.7c0-3.2,1.2-6.2,3.4-8.4c0.9-0.9,2.1-1.7,3.1-2.3v21.4H49z M184,379.95l-26.6,26l-24.4-25.8v-11.7
	c8,1.8,15.4,2.7,23.5,2.7c9.4,0,18.5-1.2,27.5-3.6V379.95z M267.2,235.35c2.3,2.3,3.5,5.3,3.5,8.5c0,4.7-2.7,8.7-6.7,10.7v-21.3
	C265,233.65,266.2,234.45,267.2,235.35z M119.5,119.25L119.5,119.25c1.3-2.6,3-5,5-7c4.9-4.9,11.3-7.4,18.2-7.4h69.6
	c30.2,0,55.2,22,59.1,51H142.7c-0.3,0-0.7,0.2-0.8,0.2c-0.3,0-0.5,0-0.8,0c-13.6-0.8-24.2-12-24.2-25.6
	C116.9,126.45,117.8,122.75,119.5,119.25z M65,164.85c1-2.1,2.4-11.6,8.3-20.9c6.7-10.6,16.2-17.1,28-19.3c-0.3,1.9-0.4,3.8-0.4,5.8
	c0,17.2,10.4,32.1,25.4,38.4c-23.3,24.7-49.3,27.9-61.3,28V164.85z M91.9,328.35c-17.3-17.2-26.9-40.2-26.9-64.7v-50.9
	c16,0,51.1-4.9,79.6-40.9H248v91.8c0,37.9-23.8,72.4-59.3,85.7c-10.3,3.8-21.1,5.8-32.1,5.8c-9.9,0-19.7-1.6-28.9-4.7
	C114.3,346.05,101.9,338.35,91.9,328.35z"/>
<path d="M194.8,438.85h-8.5c-4.4,0-8,3.6-8,8s3.6,8,8,8h8.5c4.4,0,8-3.6,8-8S199.2,438.85,194.8,438.85z"/>
<path d="M194.8,464.85h-8.5c-4.4,0-8,3.6-8,8s3.6,8,8,8h8.5c4.4,0,8-3.6,8-8S199.2,464.85,194.8,464.85z"/>
<path d="M139,233.05v-4.2c0-4.4-3.6-8-8-8s-8,3.6-8,8v4.3c0,5-3.9,9-8.9,9c-2.4,0-4.7-0.9-6.5-2.7c-1.7-1.6-2.7-3.9-2.7-6.3v-4.3
	c0-4.4-3.6-8-8-8s-8,3.6-8,8v4.3c0,6.7,2.7,13,7.4,17.7c4.7,4.7,11,7.3,17.6,7.3C127.8,258.05,139,246.85,139,233.05z"/>
<path d="M199,258.05c13.8,0,25-11.2,25-25v-4.2c0-4.4-3.6-8-8-8s-8,3.6-8,8v4.3c0,5-4,9-9,9c-2.3,0-4.6-0.9-6.2-2.6l-0.1-0.1
	c-1.7-1.6-2.6-3.9-2.6-6.3v-4.3c0-4.4-3.6-8-8-8s-8,3.6-8,8v4.3c0,6.7,2.6,13,7.4,17.7C186,255.35,192.4,258.05,199,258.05z"/>
<g>
</g>
<g>
</g>
<g>
</g>
<g>
</g>
<g>
</g>
<g>
</g>
<g>
</g>
<g>
</g>
<g>
</g>
<g>
</g>
<g>
</g>
<g>
</g>
<g>
</g>
<g>
</g>
<g>
</g>
</svg>
