<svg xmlns="http://www.w3.org/2000/svg" height="464pt" version="1.1" viewBox="-56 0 464 464" width="464pt">
<g id="surface1">
<path d="M 352 96 L 256 0 L 256 96 Z M 352 96 " style=" stroke:none;fill-rule:nonzero;fill:rgb(80.784314%,76.470588%,59.607843%);fill-opacity:1;" />
<path d="M 72 136 L 104 136 L 104 104 L 136 104 L 136 72 L 104 72 L 104 40 L 72 40 L 72 72 L 40 72 L 40 104 L 72 104 Z M 72 136 " style=" stroke:none;fill-rule:nonzero;fill:rgb(84.705882%,0%,15.294118%);fill-opacity:1;" />
<path d="M 352 96 L 256 96 L 256 0 L 176 0 L 176 232 L 312 232 L 176 232 L 176 280 L 312 280 L 176 280 L 176 328 L 312 328 L 176 328 L 176 376 L 312 376 L 176 376 L 176 464 L 352 464 Z M 352 96 " style=" stroke:none;fill-rule:nonzero;fill:rgb(96.078431%,95.294118%,92.156863%);fill-opacity:1;" />
<path d="M 40 376 L 176 376 L 176 0 L 0 0 L 0 464 L 176 464 L 176 376 Z M 40 72 L 72 72 L 72 40 L 104 40 L 104 72 L 136 72 L 136 104 L 104 104 L 104 136 L 72 136 L 72 104 L 40 104 Z M 40 72 " style=" stroke:none;fill-rule:nonzero;fill:rgb(93.72549%,92.156863%,86.666667%);fill-opacity:1;" />
<path d="M 312 240 L 40 240 C 35.582031 240 32 236.417969 32 232 C 32 227.582031 35.582031 224 40 224 L 312 224 C 316.417969 224 320 227.582031 320 232 C 320 236.417969 316.417969 240 312 240 Z M 312 240 " style=" stroke:none;fill-rule:nonzero;fill:rgb(75.294118%,67.058824%,56.862745%);fill-opacity:1;" />
<path d="M 312 288 L 40 288 C 35.582031 288 32 284.417969 32 280 C 32 275.582031 35.582031 272 40 272 L 312 272 C 316.417969 272 320 275.582031 320 280 C 320 284.417969 316.417969 288 312 288 Z M 312 288 " style=" stroke:none;fill-rule:nonzero;fill:rgb(75.294118%,67.058824%,56.862745%);fill-opacity:1;" />
<path d="M 312 336 L 40 336 C 35.582031 336 32 332.417969 32 328 C 32 323.582031 35.582031 320 40 320 L 312 320 C 316.417969 320 320 323.582031 320 328 C 320 332.417969 316.417969 336 312 336 Z M 312 336 " style=" stroke:none;fill-rule:nonzero;fill:rgb(75.294118%,67.058824%,56.862745%);fill-opacity:1;" />
<path d="M 312 384 L 40 384 C 35.582031 384 32 380.417969 32 376 C 32 371.582031 35.582031 368 40 368 L 312 368 C 316.417969 368 320 371.582031 320 376 C 320 380.417969 316.417969 384 312 384 Z M 312 384 " style=" stroke:none;fill-rule:nonzero;fill:rgb(75.294118%,67.058824%,56.862745%);fill-opacity:1;" />
</g>
</svg>