<?xml version="1.0" encoding="iso-8859-1"?>
<!-- Generator: Adobe Illustrator 19.0.0, SVG Export Plug-In . SVG Version: 6.00 Build 0)  -->
<svg version="1.1" id="Capa_1" xmlns="http://www.w3.org/2000/svg" xmlns:xlink="http://www.w3.org/1999/xlink" x="0px" y="0px"
	 viewBox="0 0 480 480" style="enable-background:new 0 0 480 480;" xml:space="preserve">
<g>
	<polygon style="fill:#BCBCBC;" points="344,40 272,40 272,72 312,72 312,440 56,440 56,72 96,72 96,40 24,40 24,472 344,472 	"/>
	<path style="fill:#BCBCBC;" d="M96,80h176v-8V40h-56c0-17.672-14.328-32-32-32s-32,14.328-32,32H96v32V80z"/>
</g>
<g>
	<path style="fill:#FFFFFF;" d="M96,80v-8H56v368h256V72h-40v8H96z M88,376h192H88z M280,224c0,53.016-42.984,96-96,96
		s-96-42.984-96-96s42.984-96,96-96S280,170.984,280,224z"/>
	<path style="fill:#FFFFFF;" d="M184,128c-53.016,0-96,42.984-96,96s42.984,96,96,96s96-42.984,96-96S237.016,128,184,128z M248,248
		h-40v40h-48v-40h-40v-48h40v-40h48v40h40V248z"/>
</g>
<polygon style="fill:#06B0C7;" points="208,160 160,160 160,200 120,200 120,248 160,248 160,288 208,288 208,248 248,248 248,200 
	208,200 "/>
<polygon style="fill:#BCBCBC;" points="456,256 456,80 432,80 408,80 408,96 408,256 "/>
<rect x="408" y="256" style="fill:#06B0C7;" width="48" height="32"/>
<polygon style="fill:#BCBCBC;" points="408,408 432,464 456,408 456,288 408,288 "/>
<path d="M24,480h320c4.416,0,8-3.584,8-8V40c0-4.416-3.584-8-8-8h-72h-48.808C219.48,13.768,203.32,0,184,0s-35.48,13.768-39.192,32
	H96H24c-4.416,0-8,3.584-8,8v432C16,476.416,19.584,480,24,480z M96,88h176c4.416,0,8-3.584,8-8h24v352H64V80h24
	C88,84.416,91.584,88,96,88z M152,48c4.416,0,8-3.584,8-8c0-13.232,10.768-24,24-24s24,10.768,24,24c0,4.416,3.584,8,8,8h48v24H104
	V48H152z M32,48h56v16H56c-4.416,0-8,3.584-8,8v368c0,4.416,3.584,8,8,8h256c4.416,0,8-3.584,8-8V72c0-4.416-3.584-8-8-8h-32V48h56
	v416H32V48z"/>
<path d="M120,256h32v32c0,4.416,3.584,8,8,8h48c4.416,0,8-3.584,8-8v-32h32c4.416,0,8-3.584,8-8v-48c0-4.416-3.584-8-8-8h-32v-32
	c0-4.416-3.584-8-8-8h-48c-4.416,0-8,3.584-8,8v32h-32c-4.416,0-8,3.584-8,8v48C112,252.416,115.584,256,120,256z M128,208h32
	c4.416,0,8-3.584,8-8v-32h32v32c0,4.416,3.584,8,8,8h32v32h-32c-4.416,0-8,3.584-8,8v32h-32v-32c0-4.416-3.584-8-8-8h-32V208z"/>
<path d="M184,328c57.344,0,104-46.656,104-104s-46.656-104-104-104S80,166.656,80,224S126.656,328,184,328z M184,136
	c48.52,0,88,39.48,88,88s-39.48,88-88,88s-88-39.48-88-88S135.48,136,184,136z"/>
<path d="M392,104h8v152v152c0,1.08,0.216,2.16,0.648,3.152L424,465.64V480h16v-14.36l23.352-54.488
	C463.784,410.16,464,409.08,464,408V256V80c0-4.416-3.584-8-8-8h-16v-8h-16v8h-16c-4.416,0-8,3.584-8,8v8h-16c-4.416,0-8,3.584-8,8
	v168h16V104z M448,280h-32v-16h32V280z M432,443.688l-16-37.336V296h32v110.36L432,443.688z M416,88h32v160h-32V88z"/>
<rect x="88" y="368" width="192" height="16"/>
<g>
</g>
<g>
</g>
<g>
</g>
<g>
</g>
<g>
</g>
<g>
</g>
<g>
</g>
<g>
</g>
<g>
</g>
<g>
</g>
<g>
</g>
<g>
</g>
<g>
</g>
<g>
</g>
<g>
</g>
</svg>
