<?xml version="1.0" encoding="iso-8859-1"?>
<!-- Generator: Adobe Illustrator 19.0.0, SVG Export Plug-In . SVG Version: 6.00 Build 0)  -->
<svg version="1.1" id="Capa_1" xmlns="http://www.w3.org/2000/svg" xmlns:xlink="http://www.w3.org/1999/xlink" x="0px" y="0px"
	 viewBox="0 0 512.064 512.064" style="enable-background:new 0 0 512.064 512.064;" xml:space="preserve">
<path style="fill:#F2F2F2;" d="M405.365,170.731v288H106.699v-288v-32h32h234.667h32V170.731z"/>
<path style="fill:#D9EEF7;" d="M373.365,96.064v42.667H138.699V96.064h32h128h42.667H373.365z"/>
<path style="fill:#F2F2F2;" d="M341.365,74.731v21.333H170.699V53.397h42.667c0-23.564,19.103-42.667,42.667-42.667
	s42.667,19.103,42.667,42.667h42.667V74.731z"/>
<path style="fill:#AAC4DA;" d="M341.365,74.731h96c5.891,0,10.667,4.776,10.667,10.667v405.333c0,5.891-4.776,10.667-10.667,10.667
	H74.699c-5.891,0-10.667-4.776-10.667-10.667V85.397c0-5.891,4.776-10.667,10.667-10.667h96v21.333h-32v42.667h-32v320h298.667v-320
	h-32V96.064h-32V74.731z"/>
<circle style="fill:#FF7260;" cx="373.365" cy="330.731" r="21.333"/>
<g>
	<path style="fill:#4C5B66;" d="M138.699,149.397h234.667c5.891,0,10.667-4.776,10.667-10.667V96.064
		c0-5.891-4.776-10.667-10.667-10.667h-21.333v-32c0-5.891-4.776-10.667-10.667-10.667h-33.067
		c-5.861-28.866-34.014-47.515-62.88-41.654c-20.988,4.262-37.392,20.665-41.654,41.654h-33.067
		c-5.891,0-10.667,4.776-10.667,10.667v32h-21.333c-5.891,0-10.667,4.776-10.667,10.667v42.667
		C128.032,144.622,132.808,149.397,138.699,149.397L138.699,149.397z M149.365,106.731h149.333V85.397H181.365V64.064h32
		c5.891,0,10.667-4.776,10.667-10.667c0-17.673,14.327-32,32-32s32,14.327,32,32c0,5.891,4.776,10.667,10.667,10.667h32v32
		c0,5.891,4.776,10.667,10.667,10.667h21.333v21.333H149.365V106.731z"/>
	<path style="fill:#4C5B66;" d="M245.365,42.731h21.333v21.333h-21.333V42.731z"/>
	<path style="fill:#4C5B66;" d="M437.365,64.064h-42.667v21.333h42.667v405.333H74.699V85.397h42.667V64.064H74.699
		c-11.782,0-21.333,9.551-21.333,21.333v405.333c0,11.782,9.551,21.333,21.333,21.333h362.667c11.782,0,21.333-9.551,21.333-21.333
		V85.397C458.699,73.615,449.147,64.064,437.365,64.064z"/>
	<path style="fill:#4C5B66;" d="M96.032,458.731c0,5.891,4.776,10.667,10.667,10.667h298.667c5.891,0,10.667-4.776,10.667-10.667
		v-85.333h-21.333v74.667H117.365v-74.667H96.032V458.731z"/>
	<path style="fill:#4C5B66;" d="M184.491,291.189l-39.541,39.541h-38.251v21.333h42.667c2.829-0.001,5.541-1.125,7.541-3.125
		l35.125-35.125l67.125,67.125c4.165,4.164,10.917,4.164,15.083,0l39.541-39.541h29.547c5.891,16.662,24.174,25.394,40.837,19.503
		c16.662-5.891,25.394-24.174,19.503-40.837c-5.891-16.662-24.174-25.394-40.837-19.503c-9.113,3.222-16.281,10.39-19.503,19.503
		h-33.963c-2.829,0.001-5.541,1.125-7.541,3.125l-35.125,35.125l-67.125-67.125C195.408,287.025,188.656,287.025,184.491,291.189
		L184.491,291.189z M373.365,320.064c5.891,0,10.667,4.776,10.667,10.667s-4.776,10.667-10.667,10.667
		c-5.891,0-10.667-4.776-10.667-10.667S367.474,320.064,373.365,320.064z"/>
	<path style="fill:#4C5B66;" d="M96.032,170.731h21.333v138.667H96.032V170.731z"/>
	<path style="fill:#4C5B66;" d="M394.699,170.731h21.333v106.667h-21.333V170.731z"/>
	<path style="fill:#4C5B66;" d="M288.032,202.731h21.333v21.333h-21.333V202.731z"/>
	<path style="fill:#4C5B66;" d="M330.699,202.731h21.333v21.333h-21.333V202.731z"/>
	<path style="fill:#4C5B66;" d="M288.032,245.397h85.333v21.333h-85.333V245.397z"/>
	<path style="fill:#4C5B66;" d="M266.699,224.064v-21.333h-32c-5.891,0-10.667,4.776-10.667,10.667v74.667h21.333v-64H266.699z"/>
</g>
<g>
</g>
<g>
</g>
<g>
</g>
<g>
</g>
<g>
</g>
<g>
</g>
<g>
</g>
<g>
</g>
<g>
</g>
<g>
</g>
<g>
</g>
<g>
</g>
<g>
</g>
<g>
</g>
<g>
</g>
</svg>
