<svg id="Layer_1" data-name="Layer 1" xmlns="http://www.w3.org/2000/svg" xmlns:xlink="http://www.w3.org/1999/xlink" viewBox="0 0 512 452.06"><defs><style>.cls-1{fill:none;}.cls-2{fill:#414b82;}.cls-3{fill:#5f6e9b;}.cls-4{fill:#64afff;}.cls-5{fill:#ffb69e;}.cls-6{fill:#4699f2;}.cls-7{clip-path:url(#clip-path);}.cls-8{fill:#ffda52;}.cls-9{fill:#ba6746;}</style><clipPath id="clip-path" transform="translate(-41 -160.98)"><rect class="cls-1" x="41" y="160" width="512" height="454"/></clipPath></defs><title>examination-icon</title><path class="cls-2" d="M285.16,564.27H145.52a32.16,32.16,0,1,1,0-64.32h39.11L147.3,473.34A32.16,32.16,0,1,1,184.64,421l119.19,85a32.17,32.17,0,0,1-18.67,58.36Zm0,0" transform="translate(-41 -160.98)"/><path class="cls-3" d="M231.9,613H73.16a32.16,32.16,0,0,1,0-64.32H168L103.7,462a32.17,32.17,0,0,1,51.68-38.32L257.73,561.72A32.16,32.16,0,0,1,231.9,613Zm0,0" transform="translate(-41 -160.98)"/><path class="cls-4" d="M192.62,462.4,99.44,431.48,157.8,266.55a67.29,67.29,0,0,1,85.75-41.24l25.2,8.83a53.87,53.87,0,0,1,33,68.65L257,430.65a51.25,51.25,0,0,1-64.36,31.75Zm0,0" transform="translate(-41 -160.98)"/><path class="cls-5" d="M353,481.72,267.25,395a25.56,25.56,0,0,1-5.26-7.75L245.62,350l12.79-35.13L292,327.62l15.18,34.57,82.36,83.36A25.73,25.73,0,1,1,353,481.72Zm0,0" transform="translate(-41 -160.98)"/><path class="cls-6" d="M245.62,350,292,327.62l-28-63.85a25.73,25.73,0,0,0-47.12,20.68Zm0,0" transform="translate(-41 -160.98)"/><g class="cls-7"><path class="cls-8" d="M553,578.29a34.74,34.74,0,0,0-33.9-34.73,61.7,61.7,0,0,0-61.2-53.93H367.36a61.7,61.7,0,0,0-61.2,53.92,34.74,34.74,0,0,0-.51,69.46v0h214v0A34.76,34.76,0,0,0,553,578.29Zm0,0" transform="translate(-41 -160.98)"/><path class="cls-9" d="M431.75,500a57.85,57.85,0,1,0,35.47,73.73A57.85,57.85,0,0,0,431.75,500Zm0,0" transform="translate(-41 -160.98)"/><path class="cls-5" d="M340.93,164.25A57.86,57.86,0,1,0,376.39,238a57.86,57.86,0,0,0-35.46-73.73Zm0,0" transform="translate(-41 -160.98)"/></g></svg>