<svg height="512pt" viewBox="-36 0 512 512.00011" width="512pt" xmlns="http://www.w3.org/2000/svg"><path d="m101.945312 337.464844h-86.945312c-8.285156 0-15 6.714844-15 15v144.535156c0 8.285156 6.714844 15 15 15h86.949219c8.28125 0 15-6.714844 15-15v-144.535156c-.003907-8.285156-6.71875-15-15.003907-15zm0 0" fill="#ffd74a"/><path d="m263.296875 256.675781h-86.949219c-8.285156 0-15 6.714844-15 15v225.324219c0 8.285156 6.714844 15 15 15h86.949219c8.28125 0 15-6.714844 15-15v-225.324219c0-8.285156-6.71875-15-15-15zm0 0" fill="#fdbf00"/><path d="m424.640625 134.660156h-86.945313c-8.285156 0-15 6.714844-15 15v347.339844c0 8.285156 6.714844 15 15 15h86.945313c8.285156 0 15-6.714844 15-15v-347.339844c0-8.285156-6.714844-15-15-15zm0 0" fill="#ff7816"/><path d="m436.785156 18.816406c-2.136718-3.859375-5.863281-6.582031-10.191406-7.445312l-55.613281-11.078125c-8.121094-1.621094-16.023438 3.652343-17.640625 11.777343-1.621094 8.125 3.652344 16.023438 11.777344 17.644532l15.5 3.085937-131.992188 73.65625-62.144531-32.21875c-4.355469-2.257812-9.542969-2.242187-13.882813.042969l-163.601562 86.023438c-7.332032 3.859374-10.148438 12.925781-6.292969 20.257812 2.683594 5.105469 7.894531 8.023438 13.289063 8.023438 2.351562 0 4.742187-.554688 6.96875-1.726563l156.667968-82.382813 62.355469 32.328126c4.476563 2.320312 9.8125 2.238281 14.214844-.214844l138.921875-77.527344-5.34375 14.101562c-2.9375 7.746094.960937 16.40625 8.707031 19.34375 1.75.664063 3.546875.976563 5.316406.976563 6.050781 0 11.753907-3.691406 14.027344-9.6875l19.863281-52.394531c1.5625-4.125 1.230469-8.730469-.90625-12.585938zm0 0" fill="#127793"/><path d="m263.296875 512c8.28125 0 15-6.714844 15-15v-225.324219c0-8.285156-6.71875-15-15-15h-43.476563v255.324219zm0 0" fill="#ff9f00"/><path d="m436.785156 18.816406c-2.136718-3.859375-5.863281-6.582031-10.191406-7.445312l-55.613281-11.078125c-8.121094-1.621094-16.023438 3.652343-17.640625 11.777343-1.621094 8.125 3.652344 16.023438 11.777344 17.644532l15.5 3.085937-131.992188 73.65625-28.804688-14.933593v33.792968l22.164063 11.488282c4.472656 2.320312 9.8125 2.238281 14.210937-.214844l138.925782-77.527344-5.34375 14.101562c-2.9375 7.746094.960937 16.40625 8.707031 19.34375 1.75.664063 3.546875.976563 5.3125.976563 6.054687 0 11.757813-3.691406 14.03125-9.6875l19.859375-52.394531c1.566406-4.125 1.234375-8.730469-.902344-12.585938zm0 0" fill="#0d5e7b"/></svg>