<svg id="Capa_1" data-name="Capa 1" xmlns="http://www.w3.org/2000/svg" viewBox="0 0 512 512"><defs><style>.cls-1{fill:#73cde5;}</style></defs><title>history</title><path class="cls-1" d="M256,0a15,15,0,0,0,0,30c124.07,0,226,101.93,226,226S380.07,482,256,482,30,380.07,30,256c0-60.32,26.4-118.1,69-160.15V121a15,15,0,0,0,30,0V61c0-8.29-7.21-15-15.5-15h-60a15,15,0,1,0,0,29.9H76.06C28.69,123.42,0,188.33,0,256,0,396.61,115.39,512,256,512S512,396.61,512,256,396.61,0,256,0Z"/><path class="cls-1" d="M150.49,129.28l10,10.05a15,15,0,0,1-21.21,21.21l-10.05-10A164.18,164.18,0,0,0,91.76,241H106a15,15,0,0,1,0,30H91.76a164.29,164.29,0,0,0,37.52,90.51l10.05-10.05a15,15,0,0,1,21.21,21.21l-10,10.05A164.18,164.18,0,0,0,241,420.24V406a15,15,0,0,1,30,0v14.24a164.26,164.26,0,0,0,90.51-37.52l-10.05-10.05a15,15,0,0,1,21.21-21.21l10.05,10.05A164.21,164.21,0,0,0,420.24,271H406a15,15,0,0,1,0-30h14.24a164.26,164.26,0,0,0-37.52-90.51l-10.05,10a15,15,0,0,1-21.21-21.21l10.05-10.05A164.18,164.18,0,0,0,271,91.76V106a15,15,0,0,1-30,0V91.76A164.18,164.18,0,0,0,150.49,129.28ZM256,181a15,15,0,0,1,15,15v53.79l25.61,25.6a15,15,0,0,1-21.22,21.22l-30-30A15,15,0,0,1,241,256V196A15,15,0,0,1,256,181Z"/></svg>