<svg height="512" viewBox="0 0 512 512" width="512" xmlns="http://www.w3.org/2000/svg"><path d="m352 88s-197 0-200.16.32c-56.4 5.712-63.2 81.04-42.88 128.56l11.04 23.12h272l3.44-8 6.48-15.12c21.2-49.44 14.08-128.88-49.92-128.88z" fill="#f98500"/><path d="m392 184v73.06a331.067 331.067 0 0 1 -50.32 175.45 101.036 101.036 0 0 1 -171.36 0q-7.71-12.33-14.27-25.23a331.044 331.044 0 0 1 -36.05-150.22v-73.06a136 136 0 1 1 272 0z" fill="#fec9a3"/><path d="m392 184v73.06a331.067 331.067 0 0 1 -50.32 175.45 101.036 101.036 0 0 1 -171.36 0q-7.71-12.33-14.27-25.23c62.71-42.99 151.29-125.13 180.25-333.06a136.108 136.108 0 0 1 55.7 109.78z" fill="#fec093"/><path d="m110.833 221.666a24.721 24.721 0 0 0 -46.833 11.055v.446a164.493 164.493 0 0 0 17.367 73.566 24 24 0 0 0 21.466 13.267h1.167c7.855 0 17.622-5.667 22-11.5l-6-68.5z" fill="#fec093"/><path d="m423.279 208a24.723 24.723 0 0 0 -22.112 13.666l-9.167 18.334-6 68.5c4.378 5.833 14.145 11.5 22 11.5h1.167a24 24 0 0 0 21.466-13.267 164.493 164.493 0 0 0 17.367-73.566v-.446a24.721 24.721 0 0 0 -24.721-24.721z" fill="#fec093"/><path d="m368 368c0 48.6-50.14 88-112 88-47.92 0-88.81-23.64-104.79-56.89a71.3 71.3 0 0 1 -7.21-31.11c0-48.6 50.14-120 112-120 29.42 0 56.19 16.15 76.17 38.32 22.04 24.43 35.83 56.19 35.83 81.68z" fill="#4db7e5"/><path d="m368 368c0 48.6-50.14 88-112 88-47.92 0-88.81-23.64-104.79-56.89 95.18-9.68 153.54-39.85 180.96-112.79 22.04 24.43 35.83 56.19 35.83 81.68z" fill="#48add9"/><path d="m298.344 309.656c-28.891-28.89-55.8-28.89-84.688 0l-11.312-11.312c35.1-35.1 72.211-35.1 107.312 0z" fill="#d6d6d4"/><g fill="#419bc2"><rect height="16" rx="8" width="112" x="200" y="320"/><rect height="16" rx="8" width="160" x="176" y="352"/><rect height="16" rx="8" width="144" x="184" y="384"/><rect height="16" rx="8" width="64" x="224" y="416"/></g><path d="m176.008 344a7.99 7.99 0 0 1 -6.953-4.031l-64-112a8 8 0 0 1 13.89-7.938l64 112a8 8 0 0 1 -6.937 11.969z" fill="#e0e0de"/><path d="m335.992 344a8 8 0 0 1 -6.937-11.969l64-112a8 8 0 1 1 13.89 7.938l-64 112a7.99 7.99 0 0 1 -6.953 4.031z" fill="#e0e0de"/><path d="m352 88s-14.67 9.33-58.67 16.67c-28.28 4.71-75.02 4.17-104.42-.44a82.2 82.2 0 0 1 -18.5-5.17 81.161 81.161 0 0 1 -50.41-75.06h168a63.982 63.982 0 0 1 64 64z" fill="#f98500"/><path d="m352 88s-14.67 9.33-58.67 16.67c-28.28 4.71-75.02 4.17-104.42-.44a82.2 82.2 0 0 1 -18.5-5.17c56.38-10.93 108.02-31.11 148.64-67.04a64.036 64.036 0 0 1 32.95 55.98z" fill="#f27900"/><path d="m236.848 191.352-23.118-9.907a69.054 69.054 0 0 0 -58.152 1.711l-7.156-14.312a85 85 0 0 1 71.613-2.1l23.117 9.906z" fill="#7a432a"/><path d="m275.152 191.5-6.3-14.7 23.117-9.906a84.974 84.974 0 0 1 71.613 2.1l-7.16 14.306a68.99 68.99 0 0 0 -58.152-1.711z" fill="#7a432a"/><path d="m226.083 210c-21.964-13.333-46.2-13.333-68.166 0a11.409 11.409 0 0 0 0 20c21.964 13.333 46.2 13.333 68.166 0a11.409 11.409 0 0 0 0-20z" fill="#e0e0de"/><path d="m346.083 210c-21.964-13.333-46.2-13.333-68.166 0a11.409 11.409 0 0 0 0 20c21.964 13.333 46.2 13.333 68.166 0a11.409 11.409 0 0 0 0-20z" fill="#e0e0de"/><path d="m227.074 229.355c-22.617-17.679-47.531-17.679-70.148 0l-9.852-12.6c28.547-22.328 61.3-22.328 89.852 0z" fill="#7a432a"/><circle cx="192" cy="224" fill="#7a432a" r="16"/><path d="m347.074 229.652c-22.617-17.679-47.531-17.679-70.148 0l-9.852-12.6c28.547-22.328 61.305-22.328 89.852 0z" fill="#7a432a"/><circle cx="312" cy="224.297" fill="#7a432a" r="16"/></svg>