<?xml version="1.0" encoding="iso-8859-1"?>
<!-- Generator: Adobe Illustrator 19.0.0, SVG Export Plug-In . SVG Version: 6.00 Build 0)  -->
<svg version="1.1" id="Capa_1" xmlns="http://www.w3.org/2000/svg" xmlns:xlink="http://www.w3.org/1999/xlink" x="0px" y="0px"
	 viewBox="0 0 468.282 468.282" style="enable-background:new 0 0 468.282 468.282;" xml:space="preserve">
<path style="fill:#E56353;" d="M398.743,468.282H69.503c-29.971,0-48.016-33.217-31.781-58.38l52.886-81.858
	c3.372,3.247,6.681,5.681,9.99,5.681c10.178,0,20.106-20.916,29.659-20.916c10.24,0,20.106,20.916,29.721,20.916
	c10.24,0,20.106-20.916,29.659-20.916c10.303,0,20.23,20.916,29.721,20.916c10.303,0,20.23-20.916,29.659-20.916
	c10.427,0,20.293,20.916,29.721,20.916c10.49,0,20.355-20.916,29.659-20.916c10.677,0,20.542,20.916,29.721,20.916
	c10.864,0,20.73-20.916,29.659-20.916l62.751,97.092C446.822,435.065,428.777,468.282,398.743,468.282z"/>
<g>
	<path style="fill:#E1E6E9;" d="M367.774,312.81c-8.929,0-18.794,20.916-29.659,20.916c-9.179,0-19.044-20.916-29.721-20.916
		c-9.303,0-19.169,20.916-29.659,20.916c-9.428,0-19.294-20.916-29.721-20.916c-9.428,0-19.356,20.916-29.659,20.916
		c-9.491,0-19.418-20.916-29.721-20.916c-9.553,0-19.418,20.916-29.659,20.916c-9.615,0-19.481-20.916-29.721-20.916
		c-9.553,0-19.481,20.916-29.659,20.916c-3.309,0-6.619-2.434-9.99-5.681l85.916-142.549V40.825h115.262v144.671L367.774,312.81z"/>
	<path style="fill:#E1E6E9;" d="M298.284,40.827h-128.28c-3.448,0-6.244-2.795-6.244-6.244V6.244c0-3.448,2.796-6.244,6.244-6.244
		h128.28c3.448,0,6.244,2.795,6.244,6.244v28.339C304.528,38.031,301.733,40.827,298.284,40.827z"/>
</g>
<rect x="176.529" y="40.83" style="fill:#D5D6DB;" width="115.231" height="22.322"/>
<g>
	<circle style="fill:#D15241;" cx="346.232" cy="405.911" r="17.483"/>
	<circle style="fill:#D15241;" cx="251.624" cy="382.977" r="17.483"/>
</g>
<g>
	<circle style="fill:#E56353;" cx="204.982" cy="255.058" r="17.483"/>
	<circle style="fill:#E56353;" cx="269.107" cy="246.691" r="17.483"/>
	<circle style="fill:#E56353;" cx="234.141" cy="179.195" r="17.483"/>
</g>
<g>
	<circle style="fill:#D15241;" cx="170.004" cy="388.428" r="17.483"/>
	<circle style="fill:#D15241;" cx="102.788" cy="423.394" r="17.483"/>
</g>
<g>
</g>
<g>
</g>
<g>
</g>
<g>
</g>
<g>
</g>
<g>
</g>
<g>
</g>
<g>
</g>
<g>
</g>
<g>
</g>
<g>
</g>
<g>
</g>
<g>
</g>
<g>
</g>
<g>
</g>
</svg>
