<?xml version="1.0" encoding="iso-8859-1"?>
<!-- Generator: Adobe Illustrator 19.0.0, SVG Export Plug-In . SVG Version: 6.00 Build 0)  -->
<svg version="1.1" id="Layer_1" xmlns="http://www.w3.org/2000/svg" xmlns:xlink="http://www.w3.org/1999/xlink" x="0px" y="0px"
	 viewBox="0 0 512 512" style="enable-background:new 0 0 512 512;" xml:space="preserve">
<g>
	<g>
		<path d="M499.2,403.2H12.8C5.726,403.2,0,408.926,0,416c0,7.074,5.726,12.8,12.8,12.8h486.4c7.074,0,12.8-5.726,12.8-12.8
			C512,408.926,506.274,403.2,499.2,403.2z"/>
	</g>
</g>
<g>
	<g>
		<path d="M486.4,83.2h-76.8c-7.074,0-12.8,5.726-12.8,12.8s5.726,12.8,12.8,12.8h43.435L230.861,308.753l-93.807-93.807
			c-5.001-5.001-13.099-5.001-18.099,0l-102.4,102.4c-5.001,5.001-5.001,13.099,0,18.099c2.492,2.509,5.768,3.755,9.045,3.755
			c3.277,0,6.554-1.246,9.054-3.746L128,242.099l93.346,93.346c4.813,4.821,12.553,4.975,17.613,0.478L473.6,124.749V172.8
			c0,7.074,5.726,12.8,12.8,12.8s12.8-5.726,12.8-12.8V96C499.2,88.926,493.474,83.2,486.4,83.2z"/>
	</g>
</g>
<g>
</g>
<g>
</g>
<g>
</g>
<g>
</g>
<g>
</g>
<g>
</g>
<g>
</g>
<g>
</g>
<g>
</g>
<g>
</g>
<g>
</g>
<g>
</g>
<g>
</g>
<g>
</g>
<g>
</g>
</svg>
