<svg height="480pt" viewBox="-24 0 480 480.47377" width="480pt" xmlns="http://www.w3.org/2000/svg"><g fill="#57a4ff"><path d="m344.355469 336.242188c-.03125 7.304687 1.960937 14.476562 5.761719 20.71875 10.335937 17.113281 31.722656 23.96875 50.082031 16.050781 18.359375-7.921875 28.050781-28.179688 22.695312-47.441407-5.355469-19.265624-24.113281-31.617187-43.925781-28.925781-19.8125 2.695313-34.59375 19.601563-34.613281 39.597657zm0 0"/><path d="m384.355469 184.242188c19.304687-.011719 35.84375-13.808594 39.320312-32.796876 3.476563-18.988281-7.101562-37.75-25.148437-44.601562s-38.410156.164062-48.410156 16.675781c-3.800782 6.242188-5.792969 13.414063-5.761719 20.722657 0 22.089843 17.910156 40 40 40zm0 0"/><path d="m88.355469 144.242188c.03125-7.308594-1.960938-14.480469-5.757813-20.722657-10.339844-17.113281-31.726562-23.96875-50.085937-16.046875-18.355469 7.917969-28.050781 28.175782-22.695313 47.441406 5.355469 19.261719 24.113282 31.613282 43.925782 28.921876 19.8125-2.691407 34.59375-19.601563 34.613281-39.59375zm0 0"/><path d="m216.355469 88.242188c14.910156.019531 28.582031-8.28125 35.441406-21.519532 3.023437-5.691406 4.589844-12.039062 4.558594-18.480468 0-22.09375-17.90625-40-40-40-22.089844 0-40 17.90625-40 40-.027344 6.441406 1.539062 12.789062 4.5625 18.480468 6.855469 13.238282 20.53125 21.539063 35.4375 21.519532zm0 0"/><path d="m48.355469 296.242188c-19.300781.011718-35.84375 13.808593-39.320313 32.792968-3.476562 18.988282 7.101563 37.75 25.148438 44.601563 18.046875 6.851562 38.414062-.164063 48.414062-16.675781 3.796875-6.242188 5.789063-13.414063 5.757813-20.71875 0-22.09375-17.90625-40-40-40zm0 0"/><path d="m216.355469 392.242188c-14.90625-.023438-28.582031 8.28125-35.4375 21.519531-3.023438 5.6875-4.589844 12.039062-4.5625 18.480469 0 22.089843 17.910156 40 40 40 22.09375 0 40-17.910157 40-40 .03125-6.441407-1.535157-12.792969-4.558594-18.480469-6.859375-13.238281-20.53125-21.542969-35.441406-21.519531zm0 0"/></g><path d="m392.355469 288.960938v-97.441407c20.933593-3.480469 37.09375-20.296875 39.746093-41.347656 2.648438-21.054687-8.835937-41.351563-28.25-49.914063-19.414062-8.566406-42.148437-3.367187-55.910156 12.78125l-86.089844-49.75c6.660157-19.824218-.277343-41.679687-17.15625-54.027343-16.878906-12.347657-39.808593-12.347657-56.6875 0-16.875 12.347656-23.816406 34.203125-17.15625 54.027343l-86.085937 49.75c-9.066406-10.691406-22.390625-16.835937-36.410156-16.796874-24.84375.144531-45.472657 19.222656-47.554688 43.980468-2.078125 24.761719 15.082031 47.011719 39.554688 51.296875v97.441407c-20.929688 3.484374-37.089844 20.296874-39.742188 41.351562-2.652343 21.050781 8.835938 41.347656 28.25 49.914062 19.414063 8.5625 42.148438 3.367188 55.910157-12.785156l86.085937 49.742188c-6.660156 19.824218.28125 41.679687 17.15625 54.027344 16.878906 12.351562 39.808594 12.351562 56.6875 0 16.878906-12.347657 23.820313-34.203126 17.15625-54.027344l86.089844-49.742188c13.761719 16.152344 36.496093 21.351563 55.914062 12.785156 19.414063-8.566406 30.898438-28.863281 28.246094-49.917968-2.65625-21.054688-18.820313-37.867188-39.753906-41.347656zm-8-176.71875c14.078125.046874 26.460937 9.324218 30.460937 22.824218 4 13.496094-1.320312 28.019532-13.097656 35.734375-11.777344 7.714844-27.21875 6.796875-37.996094-2.261719-10.773437-9.0625-14.335937-24.117187-8.757812-37.042968.566406-1.308594 1.222656-2.574219 1.96875-3.792969l.046875-.070313c5.78125-9.589843 16.175781-15.4375 27.375-15.390624zm-168-96c17.675781 0 32 14.324218 32 32 .019531 5.160156-1.242188 10.242187-3.664063 14.796874-5.472656 10.59375-16.414062 17.234376-28.335937 17.203126-1.480469 0-2.960938-.101563-4.429688-.304688-10.269531-1.425781-19.203125-7.757812-23.945312-16.976562v-.054688c-2.390625-4.519531-3.632813-9.554688-3.625-14.664062 0-17.675782 14.328125-32 32-32zm-200 128c-.019531-14.386719 9.5625-27.019532 23.421875-30.875 13.859375-3.859376 28.589844 2.007812 36.003906 14.335937 3.019531 4.984375 4.605469 10.710937 4.574219 16.539063 0 17.671874-14.324219 32-32 32-17.671875 0-32-14.328126-32-32zm32 224c-14.078125-.050782-26.457031-9.328126-30.460938-22.824219-4-13.5 1.324219-28.023438 13.097657-35.738281 11.777343-7.714844 27.21875-6.792969 37.996093 2.265624 10.777344 9.058594 14.335938 24.113282 8.761719 37.039063-.566406 1.308594-1.226562 2.578125-1.96875 3.792969l-.050781.070312c-5.777344 9.59375-16.175781 15.4375-27.375 15.394532zm168 96c-17.671875 0-32-14.328126-32-32-.015625-5.160157 1.242187-10.246094 3.664062-14.800782 5.476563-10.59375 16.414063-17.234375 28.335938-17.199218 1.484375 0 2.964843.101562 4.433593.300781 10.265626 1.425781 19.199219 7.761719 23.941407 16.976562v.058594c2.390625 4.515625 3.636719 9.550781 3.625 14.664063 0 17.671874-14.324219 32-32 32zm38.058593-61.226563c-.683593-.894531-1.441406-1.703125-2.175781-2.535156-.402343-.457031-.800781-.953125-1.195312-1.382813-1.367188-1.453125-2.832031-2.816406-4.375-4.082031-.335938-.269531-.710938-.503906-1.054688-.796875-1.242187-.953125-2.511719-1.875-3.839843-2.699219-.601563-.382812-1.226563-.703125-1.847657-1.054687-1.136719-.640625-2.28125-1.246094-3.464843-1.800782-.703126-.320312-1.410157-.613281-2.121094-.902343-1.183594-.480469-2.398438-.90625-3.617188-1.289063-.71875-.222656-1.4375-.449218-2.175781-.640625-1.335937-.351562-2.695313-.613281-4.0625-.847656-.648437-.113281-1.289063-.253906-1.945313-.34375-4.101562-.566406-8.261718-.566406-12.367187 0-.664063.089844-1.304687.230469-1.96875.34375-1.351563.234375-2.703125.496094-4 .839844-.75.199219-1.488281.433593-2.230469.664062-1.191406.375-2.398437.800781-3.519531 1.25-.753906.300781-1.496094.613281-2.226563.949219-1.117187.511719-2.199218 1.089844-3.261718 1.6875-.695313.394531-1.390625.753906-2.066406 1.179688-1.140626.710937-2.222657 1.503906-3.292969 2.308593-.527344.402344-1.089844.761719-1.601563 1.175781-1.488281 1.222657-2.898437 2.535157-4.222656 3.929688-.554688.574219-1.039062 1.214844-1.601562 1.824219-.558594.609375-1.296876 1.425781-1.886719 2.199219l-85.214844-49.222657c.160156-.417969.214844-.871093.367187-1.296875.695313-1.941406 1.265626-3.925781 1.703126-5.945312.167968-.75.335937-1.488282.464843-2.246094.980469-5.320312.980469-10.777344 0-16.097656-.058593-.320313-.089843-.640625-.152343-.957032-.476563-2.449218-1.144532-4.855468-1.992188-7.203124-.144531-.398438-.289062-.796876-.441406-1.191407-.875-2.25-1.925782-4.429687-3.136719-6.519531-.207031-.359375-.421875-.703125-.636719-1.054688-1.265625-2.085937-2.691406-4.074218-4.257812-5.945312-.175782-.214844-.375-.40625-.566406-.625-1.644532-1.898438-3.4375-3.667969-5.363282-5.285156l-.148437-.136719c-1.953125-1.597656-4.027344-3.039063-6.203125-4.3125-.300782-.175781-.589844-.367187-.894532-.542969-2.121093-1.183594-4.328124-2.207031-6.601562-3.058594l-1.246094-.453124c-2.316406-.800782-4.6875-1.421876-7.097656-1.859376-.183594-.039062-.351562-.109374-.535156-.140624v-97.320313c.183594 0 .351562-.105469.535156-.144531 2.410156-.4375 4.78125-1.058594 7.097656-1.855469.414063-.144531.800782-.304687 1.246094-.457031 2.277344-.851563 4.484375-1.875 6.601562-3.0625.304688-.167969.59375-.363282.886719-.539063 2.179688-1.269531 4.257813-2.710937 6.210938-4.3125l.148437-.132812c1.925782-1.621094 3.71875-3.386719 5.363282-5.289063.191406-.214844.390624-.410156.566406-.625 1.566406-1.871094 2.992187-3.855468 4.257812-5.941406.214844-.355469.429688-.699219.636719-1.058594 1.210937-2.089844 2.261719-4.269531 3.136719-6.519531.152344-.398437.296875-.800781.441406-1.191406.847656-2.34375 1.515625-4.753907 1.992188-7.199219.0625-.320312.09375-.640625.152343-.960938.980469-5.324218.980469-10.78125 0-16.105468-.128906-.75-.296875-1.488282-.457031-2.230469-.445312-2.023437-1.015625-4.015625-1.710938-5.96875-.152343-.414063-.207031-.871094-.367187-1.28125l85.222656-49.246094c.679688.894531 1.441407 1.703125 2.175781 2.535157.398438.457031.800782.953124 1.191407 1.382812 1.367187 1.453125 2.828125 2.8125 4.367187 4.074219.34375.289062.730469.519531 1.082032.800781 1.226562.960938 2.503906 1.855469 3.824218 2.6875.597656.382812 1.222656.703125 1.847656 1.054688 1.136719.640624 2.277344 1.25 3.464844 1.800781.703125.320312 1.40625.617187 2.117188.902343 1.183594.480469 2.386718.910157 3.609375 1.28125.726562.230469 1.449219.457032 2.183593.648438 1.335938.351562 2.6875.617188 4.054688.847656.65625.113282 1.296875.257813 1.953125.34375 4.105469.566406 8.265625.566406 12.367187 0 .664063-.085937 1.3125-.230468 1.96875-.34375 1.359376-.230468 2.703126-.496094 4-.839844.753907-.199218 1.488282-.433593 2.222657-.664062 1.203125-.375 2.402343-.800781 3.53125-1.246094.75-.304687 1.496093-.617187 2.222656-.953125 1.121094-.511719 2.199219-1.089843 3.265625-1.6875.695312-.394531 1.390625-.753906 2.0625-1.175781 1.136719-.714844 2.214844-1.503906 3.289062-2.3125.527344-.402344 1.09375-.753906 1.597657-1.175781 1.484375-1.222657 2.894531-2.535157 4.21875-3.929688.550781-.574219 1.039062-1.207031 1.597656-1.816406.632813-.726563 1.304687-1.429687 1.898437-2.207031l85.222657 49.246094c-.160157.417968-.214844.875-.367188 1.296874-.699219 1.941407-1.269531 3.929688-1.707031 5.945313-.167969.75-.335938 1.488281-.460938 2.246094-.984374 5.320312-.984374 10.777343 0 16.097656.054688.320313.085938.640625.152344.960937.472656 2.449219 1.144532 4.855469 2 7.199219.140625.398438.277344.800781.429688 1.183594.878906 2.253906 1.925781 4.433594 3.136718 6.527344.207032.359375.425782.703125.640626 1.058593 1.265624 2.085938 2.6875 4.070313 4.253906 5.941407.175781.21875.378906.410156.570312.625 1.644532 1.902343 3.4375 3.667969 5.359375 5.289062l.152344.136719c1.953125 1.597656 4.027344 3.039062 6.207031 4.308594.296875.175781.585938.371094.878906.539062 2.121094 1.1875 4.332032 2.210938 6.609376 3.0625.417968.152344.800781.3125 1.25.457032 2.3125.796874 4.683593 1.417968 7.09375 1.855468.183593 0 .351562.113282.535156.144532v97.320312c-.183594 0-.351563.101562-.535156.144531-2.410157.433594-4.78125 1.054688-7.09375 1.855469l-1.25.453125c-2.273438.851563-4.480469 1.875-6.601563 3.058594-.300781.175781-.589844.367187-.894531.542969-2.175782 1.269531-4.25 2.710937-6.199219 4.3125l-.152344.136718c-1.921875 1.617188-3.714843 3.386719-5.359375 5.285156-.191406.21875-.394531.410157-.570312.625-1.566406 1.871094-2.988282 3.859376-4.253906 5.945313-.214844.351563-.433594.695313-.640626 1.054687-1.210937 2.09375-2.257812 4.273438-3.136718 6.527344-.152344.394532-.289063.800782-.429688 1.183594-.855468 2.34375-1.527344 4.753906-2 7.203125-.066406.320313-.097656.636719-.152344.957031-.984374 5.324219-.984374 10.78125 0 16.105469.125.753906.292969 1.488281.453126 2.230469.445312 2.023437 1.015624 4.019531 1.714843 5.96875.152344.417968.207031.871094.367188 1.28125zm129.941407-34.773437c-17.671875 0-32-14.328126-32-32 0-17.675782 14.328125-32 32-32 17.675781 0 32 14.324218 32 32 .042969 8.5-3.3125 16.664062-9.324219 22.671874-6.011719 6.011719-14.175781 9.371094-22.675781 9.328126zm0 0" fill="#1e81ce"/></svg>