<svg height="512pt" viewBox="0 0 512 512" width="512pt" xmlns="http://www.w3.org/2000/svg"><path d="m65.925781 382.910156-13.941406 28.480469 41.480469 41.480469 35.863281-6.421875 104.46875-104.761719-63.515625-63.511719-104.4375 104.730469zm0 0" fill="#3e322e"/><path d="m63.53125 512-63.53125-63.515625 65.925781-65.574219 63.53125 63.515625zm0 0" fill="#53433f"/><path d="m317 0c-107.402344 0-195 87.597656-195 195s87.597656 195 195 195 195-87.597656 195-195-87.597656-195-195-195zm0 0" fill="#53433f"/><path d="m512 195c0 107.402344-87.597656 195-195 195v-390c107.402344 0 195 87.597656 195 195zm0 0" fill="#3e322e"/><path d="m482 195c0 90.902344-74.097656 165-165 165s-165-74.097656-165-165 74.097656-165 165-165 165 74.097656 165 165zm0 0" fill="#a8ebfa"/><path d="m482 195c0 90.902344-74.097656 165-165 165v-330c90.902344 0 165 74.097656 165 165zm0 0" fill="#76e2f8"/><g fill="#cc2e43"><path d="m302 285h30v45h-30zm0 0"/><path d="m182 180h45v30h-45zm0 0"/><path d="m242.761719 248.023438 21.210937 21.210937-31.832031 31.832031-21.210937-21.210937zm0 0"/></g><path d="m407 180h45v30h-45zm0 0" fill="#ae2538"/><path d="m391.238281 248.023438 31.828125 31.832031-21.210937 21.210937-31.828125-31.832031zm0 0" fill="#ae2538"/><path d="m401.855469 88.925781 21.210937 21.210938-31.828125 31.832031-21.210937-21.210938zm0 0" fill="#ae2538"/><path d="m302 60h30v45h-30zm0 0" fill="#cc2e43"/><path d="m232.140625 88.929688 31.832031 31.828124-21.210937 21.210938-31.832031-31.828125zm0 0" fill="#cc2e43"/><path d="m317 60h15v45h-15zm0 0" fill="#ae2538"/><path d="m317 285h15v45h-15zm0 0" fill="#ae2538"/><path d="m317 90c-57.898438 0-105 47.101562-105 105s47.101562 105 105 105 105-47.101562 105-105-47.101562-105-105-105zm0 0" fill="#e63950"/><path d="m422 195c0 57.898438-47.101562 105-105 105v-210c57.898438 0 105 47.101562 105 105zm0 0" fill="#cc2e43"/><path d="m287 143.785156 21.210938 21.210938-21.210938 21.210937-21.210938-21.210937zm0 0" fill="#53433f"/><path d="m295.695312 225 21.300782-21.300781 21.300781 21.300781-21.300781 21.300781zm0 0" fill="#53433f"/><path d="m347 143.785156 21.210938 21.210938-21.210938 21.210937-21.210938-21.210937zm0 0" fill="#3e322e"/><path d="m338.300781 225-21.300781 21.300781v-42.601562zm0 0" fill="#3e322e"/></svg>