<svg height="512pt" viewBox="0 -14 512.00039 512" width="512pt" xmlns="http://www.w3.org/2000/svg"><path d="m468.605469 216.863281c0 95.851563-77.703125 173.554688-173.558594 173.554688-95.851563 0-173.558594-77.703125-173.558594-173.554688 0-95.855469 77.707031-173.558593 173.558594-173.558593 95.855469 0 173.558594 77.703124 173.558594 173.558593zm0 0" fill="#29abe2"/><path d="m43.390625 294.964844h69.421875v121.488281h-69.421875zm0 0" fill="#29abe2"/><path d="m0 303.640625h43.390625v104.136719h-43.390625zm0 0" fill="#ccc"/><path d="m112.8125 400.148438 76.738281 31.863281c33.289063 13.558593 70.484375 13.96875 104.066407 1.148437l134.054687-51.113281c12.054687-4.703125 18.019531-18.285156 13.320313-30.34375-.023438-.054687-.046876-.113281-.070313-.167969-4.511719-11.769531-17.710937-17.652344-29.480469-13.140625-.21875.085938-.433594.171875-.648437.261719l-72.554688 30.804688c-4.007812 1.628906-8.226562 2.664062-12.53125 3.082031 11.695313-2.609375 19.058594-14.203125 16.449219-25.898438-2.203125-9.882812-10.949219-16.925781-21.074219-16.96875h-67.3125c-8.160156-.003906-16.203125-1.902343-23.5-5.546875-26.945312-13.472656-56.65625-20.488281-86.78125-20.488281h-30.675781zm0 0" fill="#f2c09a"/><path d="m230.300781 324.078125c7.296875 3.644531 15.339844 5.542969 23.492188 5.542969h67.289062c11.980469 0 21.695313 9.714844 21.695313 21.695312-.015625 2.96875-.648438 5.90625-1.859375 8.617188-3.460938-7.867188-11.242188-12.949219-19.835938-12.957032h-67.289062c-8.152344 0-16.195313-1.898437-23.492188-5.542968-26.941406-13.476563-56.652343-20.488282-86.777343-20.488282h-30.710938v-17.355468h30.703125c30.128906-.003906 59.839844 7.011718 86.785156 20.488281zm0 0" fill="#e9937c"/><path d="m440.949219 351.472656c2.179687 5.5625 2.164062 11.746094-.050781 17.296875-4.570313-11.742187-17.796876-17.554687-29.535157-12.984375-.183593.070313-.363281.144532-.542969.21875l-72.546874 30.804688c-5.597657 2.378906-11.613282 3.609375-17.695313 3.609375h-103.628906v-17.40625h103.628906c6.082031 0 12.097656-1.226563 17.695313-3.601563l72.546874-30.804687c11.617188-4.875 24.988282.589843 29.863282 12.207031.09375.21875.179687.441406.265625.660156zm0 0" fill="#e9937c"/><path d="m364.210938 158.214844-43.128907-10.777344v-17.355469c10.636719-5.316406 17.355469-16.1875 17.355469-28.082031v-50.019531c0-23.960938-19.425781-43.386719-43.390625-43.386719-23.960937 0-43.386719 19.425781-43.386719 43.386719v50.019531c0 11.894531 6.71875 22.765625 17.355469 28.082031v17.355469l-43.128906 10.777344c-15.457031 3.863281-26.296875 17.75-26.296875 33.679687v77.035157h26.035156v-60.746094h17.355469v78.101562h104.136719v-78.101562h17.355468v60.746094h26.03125v-77.035157c.003906-15.929687-10.839844-29.816406-26.292968-33.679687zm0 0" fill="#0071bc"/><path d="m43.390625 425.132812h69.421875c4.792969 0 8.679688-3.886718 8.679688-8.679687v-3.304687l64.789062 26.898437c35.316406 14.425781 74.804688 14.863281 110.433594 1.226563l134.054687-51.121094c7.941407-3.019532 14.332031-9.109375 17.730469-16.898438 3.507812-7.894531 3.6875-16.871094.503906-24.90625-2.59375-6.558594-7.3125-12.058594-13.398437-15.617187 64.03125-77.496094 53.113281-192.226563-24.382813-256.257813-19.121094-15.800781-41.269531-27.523437-65.085937-34.453125-5.554688-28.214843-32.933594-46.582031-61.144531-41.027343-20.738282 4.082031-36.949219 20.292968-41.03125 41.027343-96.527344 28.097657-152.003907 129.128907-123.902344 225.660157 2.722656 9.355468 6.195312 18.480468 10.378906 27.285156h-8.945312c0-4.792969-3.886719-8.679688-8.679688-8.679688h-69.421875c-4.792969 0-8.679687 3.886719-8.679687 8.679688h-26.03125v17.355468h26.03125v86.777344h-26.03125v17.355469h26.03125c0 4.792969 3.886718 8.679687 8.679687 8.679687zm199.589844-364.679687v41.546875c-.042969 13.203125 6.457031 25.570312 17.355469 33.019531v5.640625l-36.550782 9.140625c-19.328125 4.808594-32.890625 22.175781-32.871094 42.09375v77.035157h17.355469v-77.035157c0-11.941406 8.128907-22.355469 19.714844-25.25l43.128906-10.789062c3.867188-.964844 6.578125-4.433594 6.578125-8.417969v-17.355469c.003906-3.289062-1.855468-6.296875-4.796875-7.765625-7.722656-3.820312-12.59375-11.703125-12.558593-20.316406v-50.019531c0-19.171875 15.542968-34.710938 34.710937-34.710938 19.171875 0 34.710937 15.542969 34.710937 34.710938v50.019531c.035157 8.613281-4.835937 16.496094-12.554687 20.316406-2.941406 1.46875-4.800781 4.476563-4.800781 7.765625v17.355469c.003906 3.984375 2.714844 7.453125 6.578125 8.417969l43.128906 10.789062c11.589844 2.894531 19.714844 13.308594 19.71875 25.25v77.035157h17.355469v-77.035157c.019531-19.917969-13.542969-37.285156-32.871094-42.09375l-36.554688-9.140625v-5.640625c10.890626-7.441406 17.386719-19.789062 17.359376-32.976562v-41.59375c86.300781 28.617187 133.0625 121.777343 104.445312 208.078125-7.390625 22.292968-19.464844 42.742187-35.414062 59.984375-3.003907.289062-5.953126 1.019531-8.746094 2.160156l-56.269532 23.890625c.164063-1.058594.269532-2.125.320313-3.195312 0-16.773438-13.597656-30.371094-30.371094-30.371094h-67.3125c-6.8125-.011719-13.527343-1.597656-19.621093-4.632813-26.210938-13.035156-54.921876-20.265625-84.175782-21.210937-43.28125-80.019532-13.492187-179.972656 66.527344-223.25 8.476562-4.585938 17.335938-8.414063 26.480469-11.449219zm-99.492188 251.867187c28.773438.03125 57.148438 6.730469 82.902344 19.566407 8.5 4.246093 17.875 6.457031 27.378906 6.464843h67.3125c7.1875.046876 12.980469 5.914063 12.933594 13.101563-.039063 6.019531-4.203125 11.230469-10.070313 12.59375-1.136718.105469-2.246093.339844-3.402343.339844h-103.59375v17.355469h103.59375.539062c.171875 0 .339844-.054688.519531-.054688 6.886719-.109375 13.6875-1.550781 20.03125-4.242188l72.554688-30.796874c3.457031-1.476563 7.363281-1.476563 10.820312 0 3.59375 1.515624 6.417969 4.433593 7.8125 8.078124 1.472657 3.71875 1.386719 7.875-.234374 11.535157-1.535157 3.542969-4.429688 6.316406-8.035157 7.695312l-134.058593 51.113281c-31.5 12.066407-66.410157 11.691407-97.644532-1.050781l-71.355468-29.667969v-82.03125zm-91.421875-8.679687h52.066406v104.136719h-52.066406zm0 0"/><path d="m382.664062 423.640625 13.445313-5.125 6.179687 16.21875-13.445312 5.125zm0 0"/><path d="m296.714844 475.019531 79.523437-30.371093-6.179687-16.21875-79.53125 30.320312c-31.5 12.070312-66.410156 11.695312-97.644532-1.050781l-7.316406-3.035157-6.664062 16.027344 7.378906 3.0625c35.316406 14.425782 74.804688 14.863282 110.433594 1.222656zm0 0"/><path d="m225.625 208.183594h17.355469v78.101562h-17.355469zm0 0"/><path d="m347.117188 208.183594h17.355468v78.101562h-17.355468zm0 0"/><path d="m441.445312 81.199219c50.375 54.417969 66.480469 132.253906 41.835938 202.195312l16.375 5.78125c26.773438-76.023437 9.269531-160.625-45.480469-219.777343zm0 0"/><path d="m411.480469 54.722656c5.320312 3.828125 10.570312 8.019532 15.621093 12.445313l11.46875-13.015625c-5.457031-4.808594-11.148437-9.355469-16.945312-13.511719zm0 0"/><path d="m78.839844 198.792969 17.300781 1.425781c4.90625-60.855469 37.554687-116.066406 88.515625-149.6875l-9.605469-14.457031c-55.386719 36.558593-90.871093 96.570312-96.210937 162.71875zm0 0"/></svg>