<?xml version="1.0" encoding="iso-8859-1"?>
<!-- Generator: Adobe Illustrator 19.0.0, SVG Export Plug-In . SVG Version: 6.00 Build 0)  -->
<svg version="1.1" id="Capa_1" xmlns="http://www.w3.org/2000/svg" xmlns:xlink="http://www.w3.org/1999/xlink" x="0px" y="0px"
	 viewBox="0 0 512 512" style="enable-background:new 0 0 512 512;" xml:space="preserve">
<path style="fill:#F1F1F6;" d="M416,62H96c-8.284,0-15,6.716-15,15v420c0,8.284,6.716,15,15,15h320c8.284,0,15-6.716,15-15V77
	C431,68.716,424.284,62,416,62z"/>
<path style="fill:#D4D6E1;" d="M416,62H256v450h160c8.284,0,15-6.716,15-15V77C431,68.716,424.284,62,416,62z"/>
<path style="fill:#2E86FD;" d="M350.157,72.043l-21.709-62C326.342,4.027,320.664,0,314.291,0H197.709
	c-6.373,0-12.051,4.027-14.157,10.043l-21.709,62c-1.606,4.588-0.89,9.671,1.923,13.636C166.578,89.644,171.139,92,176,92h160
	c4.861,0,9.422-2.356,12.234-6.321C351.047,81.714,351.764,76.631,350.157,72.043z"/>
<path style="fill:#AAF3FE;" d="M371,147c0-8.284-6.716-15-15-15H156c-8.242,0-15,6.765-15,15v120c0,8.284,6.716,15,15,15
	c15.213,0,179.987,0.002,199.985,0.002c8.3,0,15.015-6.778,15.015-15.002V147z M341,240.507L210.155,162H341V240.507z M171,173.493
	L301.845,252H171V173.493z"/>
<g>
	<path style="fill:#F7974F;" d="M296,342h-80c-8.284,0-15-6.716-15-15s6.716-15,15-15h80c8.284,0,15,6.716,15,15
		S304.284,342,296,342z"/>
	<path style="fill:#F7974F;" d="M356,392H156c-8.284,0-15-6.716-15-15s6.716-15,15-15h200c8.284,0,15,6.716,15,15
		S364.284,392,356,392z"/>
	<path style="fill:#F7974F;" d="M356,442H156c-8.284,0-15-6.716-15-15s6.716-15,15-15h200c8.284,0,15,6.716,15,15
		S364.284,442,356,442z"/>
</g>
<path style="fill:#2962E0;" d="M350.157,72.043l-21.709-62C326.342,4.027,320.664,0,314.291,0H256v92h80
	c4.861,0,9.422-2.356,12.234-6.321C351.047,81.714,351.764,76.631,350.157,72.043z"/>
<path style="fill:#8DDCF7;" d="M356,132H256v30h85v78.507l-85-51v34.986L301.845,252H256v30.001
	c45.004,0.001,90.118,0.001,99.985,0.001c8.3,0,15.015-6.778,15.015-15.002V147C371,138.716,364.284,132,356,132z"/>
<g>
	<path style="fill:#FC5E30;" d="M296,312h-40v30h40c8.284,0,15-6.716,15-15S304.284,312,296,312z"/>
	<path style="fill:#FC5E30;" d="M356,362H256v30h100c8.284,0,15-6.716,15-15S364.284,362,356,362z"/>
	<path style="fill:#FC5E30;" d="M356,412H256v30h100c8.284,0,15-6.716,15-15S364.284,412,356,412z"/>
</g>
<g>
</g>
<g>
</g>
<g>
</g>
<g>
</g>
<g>
</g>
<g>
</g>
<g>
</g>
<g>
</g>
<g>
</g>
<g>
</g>
<g>
</g>
<g>
</g>
<g>
</g>
<g>
</g>
<g>
</g>
</svg>
