<svg id="Layer_1" data-name="Layer 1" xmlns="http://www.w3.org/2000/svg" xmlns:xlink="http://www.w3.org/1999/xlink" viewBox="0 0 336.62 292.01"><defs><style>.cls-1{fill:none;}.cls-2{clip-path:url(#clip-path);}.cls-3{fill:#e74424;}.cls-4{fill:#f7f1e6;}</style><clipPath id="clip-path" transform="translate(-128 -241.79)"><rect class="cls-1" x="128" y="241" width="336.96" height="293.76"/></clipPath></defs><title>vital-icon</title><g class="cls-2"><path class="cls-3" d="M253.17,305.52a6.4,6.4,0,0,1,12.4,1.61l10.23,119.5,19.15-69a6.4,6.4,0,0,1,12.4.28L318,404.13l18.21-76.5a6.4,6.4,0,0,1,12.56.59l13.59,96.88,6.09-19.69a6.41,6.41,0,0,1,6.12-4.51h68.47c10-15.12,17.2-30.19,19.58-44.68,5.22-32.07.13-58.52-15.18-78.61-15.45-20.26-38.93-31.83-71.83-35.36a87.29,87.29,0,0,0-8.92-.46c-23.28,0-46.76,8.66-64.8,23.31-18-14.65-41.52-23.31-64.76-23.31a87.67,87.67,0,0,0-8.94.46c-32.9,3.53-56.4,15.1-71.84,35.36-15.3,20.09-20.39,46.54-15.17,78.61,2.42,14.72,9.75,30,20.05,45.39h57.44Zm0,0" transform="translate(-128 -241.79)"/></g><path class="cls-3" d="M366.14,456.26a6.4,6.4,0,0,1-12.46-1l-12.85-91.67-16.69,70.09a6.41,6.41,0,0,1-6.22,4.92h0a6.42,6.42,0,0,1-6.22-5l-11.14-48.32-21.92,79a6.39,6.39,0,0,1-6.16,4.69l-.6,0a6.4,6.4,0,0,1-5.78-5.83L255.32,337.43l-26.1,72.74a6.4,6.4,0,0,1-6,4.24H170.46c21.28,27.73,50.45,55.17,76,79.21,0,0,21.78,21.86,28.32,27.47,4.93,4.22,15.59,12.71,27.15,12.71s22.23-8.49,27.13-12.71c6.54-5.61,28.31-27.47,28.31-27.47,25.77-24.24,55.22-51.95,76.54-79.92h-54.6Zm0,0" transform="translate(-128 -241.79)"/><path class="cls-4" d="M457,400.9H374.59a6.41,6.41,0,0,0-6.12,4.51l-6.09,19.69-13.59-96.88a6.4,6.4,0,0,0-12.56-.59L318,404.13l-10.67-46.26a6.4,6.4,0,0,0-12.4-.28l-19.15,69-10.23-119.5a6.4,6.4,0,0,0-12.4-1.61l-34.48,96.09H134.4a6.4,6.4,0,1,0,0,12.8h88.79a6.4,6.4,0,0,0,6-4.24l26.1-72.74,10.76,125.73a6.4,6.4,0,0,0,5.78,5.83l.6,0a6.39,6.39,0,0,0,6.16-4.69l21.92-79,11.14,48.32a6.42,6.42,0,0,0,6.22,5h0a6.4,6.4,0,0,0,6.22-4.92l16.69-70.09,12.85,91.67a6.4,6.4,0,0,0,12.46,1L379.3,413.7H457a6.4,6.4,0,1,0,0-12.8Zm0,0" transform="translate(-128 -241.79)"/></svg>