<svg id="Layer_1" data-name="Layer 1" xmlns="http://www.w3.org/2000/svg" viewBox="0 0 351.28 351.28"><defs><style>.cls-1{fill:none;}.cls-2{fill:#00aeef;}</style></defs><title>chief-complaint-icon</title><rect class="cls-1" width="351.28" height="351.28"/><path class="cls-2" d="M673.2,695.08H833.63a7.3,7.3,0,0,0,0-14.59H673.2a7.3,7.3,0,0,0,0,14.59Z" transform="translate(-591.73 -592.41)"/><path class="cls-2" d="M760.71,768H673.2a7.29,7.29,0,0,0,0,14.58h87.51a7.29,7.29,0,1,0,0-14.58Z" transform="translate(-591.73 -592.41)"/><path class="cls-2" d="M915.09,636.74c-.42,0-.83.11-1.25.13v-.13a29.21,29.21,0,0,0-29.17-29.17H622.16A29.21,29.21,0,0,0,593,636.74V921.13a7.3,7.3,0,0,0,4.5,6.74,7.17,7.17,0,0,0,2.79.56,7.28,7.28,0,0,0,5.16-2.14l70.78-70.79H884.67a29.2,29.2,0,0,0,29.17-29.16v-121l21-21h0a27.91,27.91,0,0,0-19.74-47.65Zm-15.83,189.6a14.6,14.6,0,0,1-14.59,14.58H673.2a7.27,7.27,0,0,0-5.15,2.14l-60.48,60.47V636.74a14.6,14.6,0,0,1,14.59-14.58H884.67a14.6,14.6,0,0,1,14.59,14.58v5a27.86,27.86,0,0,0-3.91,3.2L816,724.25H673.2a7.29,7.29,0,0,0,0,14.58H804.31l-7,35a7.28,7.28,0,0,0,7.15,8.72,7.51,7.51,0,0,0,1.42-.14l36.45-7.29a7.24,7.24,0,0,0,3.73-2L899.26,720Zm-61.94-65.06L813.76,766l4.72-23.59,66.19-66.19,18.86,18.86Zm87.2-87.19-10.68,10.68L895,665.91l10.69-10.69a13.34,13.34,0,0,1,18.85,18.87Z" transform="translate(-591.73 -592.41)"/></svg>