<?xml version="1.0" encoding="utf-8"?>
<!-- Generator: Adobe Illustrator 22.1.0, SVG Export Plug-In . SVG Version: 6.00 Build 0)  -->
<svg version="1.1" id="Layer_1" xmlns="http://www.w3.org/2000/svg" xmlns:xlink="http://www.w3.org/1999/xlink" x="0px" y="0px"
	 viewBox="0 0 511 511" style="enable-background:new 0 0 511 511;" xml:space="preserve">
<style type="text/css">
	.st0{fill:#00ADEE;}
</style>
<path class="st0" d="M473.2,200.1H287v-38.9c0-4.1-3.4-7.5-7.5-7.5c-4.1,0-7.5,3.4-7.5,7.5v68.3c0,12-9.8,21.8-21.8,21.8h-135
	c-4.9,0-9.5,1.9-13,5.4l-30.1,30.1v-17.1c0-10.1-8.2-18.4-18.4-18.4h-18c-12,0-21.8-9.8-21.8-21.8V105.6c0-12,9.8-21.8,21.8-21.8
	h214.5c12,0,21.8,9.8,21.8,21.8v20.6c0,4.1,3.3,7.5,7.5,7.5c4.1,0,7.5-3.3,7.5-7.5v-20.6c0-20.2-16.5-36.7-36.7-36.7H35.7
	C15.5,68.9-1,85.3-1,105.6v123.9c0,20.2,16.5,36.7,36.7,36.7h18c1.9,0,3.4,1.5,3.4,3.4v35.2c0,6.6,8.1,10,12.8,5.3
	c46.6-46.6,43.3-43.9,45.3-43.9H221v95.1c0,20.3,16.5,36.8,36.8,36.8h59.3c4.1,0,7.5-3.3,7.5-7.5s-3.4-7.5-7.5-7.5h-59.3
	c-12.1,0-21.9-9.8-21.9-21.9v-95.1h14.3c20.2,0,36.7-16.5,36.7-36.7V215h186.2c12.1,0,21.9,9.8,21.9,21.9v124.4
	c0,12.1-9.8,21.9-21.9,21.9h-17.8c-10.1,0-18.4,8.2-18.4,18.4v17.1l-30.1-30.1c-3.5-3.5-8.1-5.4-13-5.4h-41.7
	c-4.1,0-7.5,3.4-7.5,7.5c0,4.1,3.3,7.5,7.5,7.5c45.1,0,42.7-0.4,44.1,1l42.9,42.9c4.7,4.7,12.8,1.4,12.8-5.3v-35.2
	c0-1.9,1.5-3.4,3.4-3.4h17.8c20.3,0,36.8-16.5,36.8-36.8V236.9C510,216.6,493.5,200.1,473.2,200.1z"/>
<path class="st0" d="M181.8,127h-18.1c-10,0-18.2,8.2-18.2,18.2c0,10,8.2,18.2,18.2,18.2h43.8c1.8,0,3.2,1.4,3.2,3.2v1.1
	c0,4.1,3.4,7.5,7.5,7.5c4.1,0,7.5-3.3,7.5-7.5c0-12.3-9-19.3-18.2-19.3h-43.8c-1.8,0-3.2-1.4-3.2-3.2c0-1.8,1.4-3.2,3.2-3.2h18.1
	c9.8,0,17.8-8,17.8-17.8c0-9.8-8-17.8-17.8-17.8h-9.4c-4.1,0-7.5,3.4-7.5,7.5c0,4.1,3.4,7.5,7.5,7.5h9.4c1.6,0,2.9,1.3,2.9,2.9
	C184.7,125.7,183.4,127,181.8,127z"/>
<path class="st0" d="M166.7,204.8c-4.1,0-7.5,3.4-7.5,7.5c0,4.1,3.4,7.5,7.5,7.5c41.8,0,39.9,0.3,42.2-0.8h17.5
	c4.7,0,8.5-3.8,8.5-8.5v-23.7c0-4.7-3.8-8.5-8.5-8.5h-17.5c-2.5-1.2,8.5-0.8-148.7-0.8c-5,0-9.1,4.1-9.1,9.1v24c0,5,4.1,9.1,9.1,9.1
	h71.6c4.1,0,7.5-3.3,7.5-7.5c0-4.1-3.3-7.5-7.5-7.5h-19.3v-12.3h86.1v12.3H166.7z M97.5,204.8H66.1v-12.3h31.5V204.8z M219.9,204
	h-6.3v-10.7h6.3V204z"/>
<path class="st0" d="M433.8,299.1c0-37.7-30.6-68.3-68.3-68.3c-37.7,0-68.3,30.6-68.3,68.3s30.6,68.3,68.3,68.3
	C403.2,367.4,433.8,336.8,433.8,299.1z M312.2,299.1c0-29.4,23.9-53.3,53.3-53.3c29.4,0,53.3,23.9,53.3,53.3s-23.9,53.3-53.3,53.3
	C336.1,352.4,312.2,328.5,312.2,299.1z"/>
<path class="st0" d="M383.2,261.4c-5.6-2.6-11.5-3.9-17.7-3.9c-30.4,0-50.7,31.8-37.7,59.3c2.2,4.7,8.4,5.8,12.1,2.1l45.4-45.4
	C389,269.8,387.9,263.6,383.2,261.4z M338.8,298.8c0.2-14.5,11.9-26.2,26.4-26.4L338.8,298.8z"/>
<path class="st0" d="M407.1,299.1c0-6.2-1.3-12.1-3.9-17.7c-2.2-4.7-8.4-5.8-12.1-2.1l-45.4,45.4c-3.7,3.7-2.6,9.9,2.1,12.1
	C375.4,349.8,407.1,329.5,407.1,299.1z M392.2,299.4c-0.2,14.5-11.9,26.2-26.4,26.4L392.2,299.4z"/>
</svg>
