<?xml version="1.0" encoding="utf-8"?>
<!-- Generator: Adobe Illustrator 22.1.0, SVG Export Plug-In . SVG Version: 6.00 Build 0)  -->
<svg version="1.1" id="Capa_1" xmlns="http://www.w3.org/2000/svg" xmlns:xlink="http://www.w3.org/1999/xlink" x="0px" y="0px"
	 viewBox="0 0 368.6 368.6" style="enable-background:new 0 0 368.6 368.6;" xml:space="preserve">
<style type="text/css">
	.st0{fill:#00ADEE;}
</style>
<g>
	<path class="st0" d="M292.4,17.3H248V0H120.5v17.3H76.2c-20,0-36.3,16.3-36.3,36.3v278.6c0,20,16.3,36.3,36.3,36.3h216.2
		c20,0,36.3-16.3,36.3-36.3V53.6C328.7,33.6,312.4,17.3,292.4,17.3z M135.5,15H233v19.7h-97.5V15z M313.7,332.3
		c0,11.7-9.5,21.3-21.3,21.3H76.2c-11.7,0-21.3-9.5-21.3-21.3V53.6c0-11.7,9.5-21.3,21.3-21.3h44.3v17.3H248V32.3h44.3
		c11.7,0,21.3,9.5,21.3,21.3V332.3z"/>
	<path class="st0" d="M249.5,169.4l-7.8,11.8c-1.1,1.7-2.8,1.9-3.5,1.9c-0.7,0-2.4-0.2-3.5-1.8l-0.2-0.3c-3.9-5.8-10.5-8.9-17.4-8.3
		c-7,0.6-12.9,4.7-15.8,11.1l-4.2,9c-1.1,2.4-3.3,2.5-4.2,2.4c-0.9-0.1-3-0.6-3.7-3.1l-9.1-35.7c-2.2-8.7-9.7-14.5-18.6-14.5
		c0,0-0.1,0-0.1,0c-9,0-16.4,5.9-18.6,14.7l-8.2,33.7c-0.6,2.6-2.8,3.1-3.7,3.2c-0.9,0.1-3.1,0-4.2-2.5l-8.1-18.5
		c-3-7-10-11.5-17.6-11.5H79.5v15h21.6c1.7,0,3.2,1,3.8,2.5l8.1,18.5c3.3,7.7,10.9,12.2,19.3,11.5c8.4-0.7,15-6.5,17-14.6l8.2-33.7
		c0.7-2.9,3.1-3.2,4.1-3.2c1,0,3.4,0.3,4.1,3.2l9.1,35.7c2,8,8.6,13.6,16.8,14.4c0.6,0.1,1.2,0.1,1.9,0.1c7.5,0,14.1-4.2,17.3-11.1
		l4.2-9c0.9-2,2.7-2.4,3.5-2.4c0.7-0.1,2.6,0,3.8,1.8l0.2,0.3c3.6,5.2,9.5,8.4,15.8,8.4c0.1,0,0.1,0,0.2,0
		c6.4-0.1,12.3-3.3,15.9-8.6l7.8-11.8c0.8-1.2,2.1-1.9,3.5-1.9h23.6v-15h-23.6C259,160.7,253,163.9,249.5,169.4z"/>
	<rect x="79.5" y="271.8" class="st0" width="84.7" height="15"/>
	<rect x="79.5" y="308.4" class="st0" width="169.4" height="15"/>
</g>
</svg>
