<?xml version="1.0" encoding="utf-8"?>
<!-- Generator: Adobe Illustrator 22.1.0, SVG Export Plug-In . SVG Version: 6.00 Build 0)  -->
<svg version="1.1" id="Layer_1" xmlns="http://www.w3.org/2000/svg" xmlns:xlink="http://www.w3.org/1999/xlink" x="0px" y="0px"
	 viewBox="0 0 20 20" style="enable-background:new 0 0 20 20;" xml:space="preserve">
<path d="M16.9,3.7c-0.9-0.9-2.3-0.9-3.2,0l-8.9,8.9c-0.1,0.1-0.1,0.1-0.1,0.2l-1.2,4.2c0,0.2,0,0.4,0.1,0.5c0.1,0.1,0.3,0.2,0.5,0.1
	l4.2-1.2c0.1,0,0.2-0.1,0.2-0.1l8.9-8.9c0.9-0.9,0.9-2.3,0-3.2L16.9,3.7z M6,12.9l7.3-7.3L15.6,8l-7.3,7.3L6,12.9z M5.5,13.9
	l1.9,1.9l-2.6,0.7L5.5,13.9z M16.8,6.8l-0.5,0.5L13.9,5l0.5-0.5c0.5-0.5,1.3-0.5,1.8,0L16.8,5C17.3,5.5,17.3,6.3,16.8,6.8z"/>
</svg>
