<svg id="Layer_1" data-name="Layer 1" xmlns="http://www.w3.org/2000/svg" viewBox="0 0 351.28 351.28"><defs><style>.cls-1{fill:#00aeef;}.cls-2{fill:none;}</style></defs><title>examination-icon</title><path class="cls-1" d="M937.36,683.32a28.25,28.25,0,0,0-28.22,28.23v10.83a50.32,50.32,0,0,0-20.78-13.67,39.52,39.52,0,1,0-52-2.81H782.11a18.85,18.85,0,0,0-2.82.29V615.57H768V604.28h11.29V593H722.84v11.29h11.29v11.29H722.84V720L745.42,737v10.67l-47-18.07a39.5,39.5,0,1,0-50.77,1.77,50.82,50.82,0,0,0-33.27,38.61l-9.5,50.66a36.51,36.51,0,0,0,6.37,28.32,34,34,0,0,0,3.21,3.77H593V943h112.9a22,22,0,0,0,4.72-.5A22.57,22.57,0,0,0,728,915.69l-13.1-61.18a45.48,45.48,0,0,0-40.94-35.57l13.59-45.29,52.81,21a22.29,22.29,0,0,0,8.31,1.6h2.63a22.38,22.38,0,0,0,8-43.27l-2.59-1V737l6.75-5.06a19.7,19.7,0,0,0,18.64,13.53h61.33A5.65,5.65,0,0,1,849,750l9.37,46.83a45.63,45.63,0,0,0-37.26,35.45L808,915.68A22.57,22.57,0,0,0,830.1,943h45.16V920.43h33.88V943H943V683.32ZM643.8,700.25A28.23,28.23,0,1,1,672,728.48,28.25,28.25,0,0,1,643.8,700.25ZM604.28,864h66.43l13.1,61.18a22.22,22.22,0,0,0,2.6,6.56H604.28Zm158.07-90.12a11.1,11.1,0,0,1-11.08,11.09h-2.63a11.18,11.18,0,0,1-4.12-.79l-54.47-21.8H679.11l-20.32,67.72,12.07,0a34.09,34.09,0,0,1,33,26.76l13.1,61.18a11.27,11.27,0,0,1-8.68,13.4,11.51,11.51,0,0,1-13.4-8.67l-13.1-61.19a11.37,11.37,0,0,0-11-8.92H642.09c-8.88,0-17-3.88-21.65-10.37A25.39,25.39,0,0,1,616,822.66L625.5,772a39.55,39.55,0,0,1,38.85-32.24h29.21l61.69,23.73a11.14,11.14,0,0,1,7.1,10.35Zm73.4-96.18A28.23,28.23,0,1,1,864,705.9,28.25,28.25,0,0,1,835.75,677.67Zm-90.33-73.39h11.29v11.29H745.42Zm-11.29,90.33h11.29V683.32H734.13V672h22.58V660.74H734.13V649.45h11.29v-11.3H734.13V626.86H768v85a20.05,20.05,0,0,0-3.6,5.2l-13.34,10-16.93-12.7Zm86.49,231.94a11.44,11.44,0,0,1-1.5-8.81l13-83.45a34.09,34.09,0,0,1,33-26.76l6.85,0-12-59.76a17,17,0,0,0-16.6-13.61H782.1a8.47,8.47,0,0,1,0-16.94h89.54a39.29,39.29,0,0,1,37.49,27.14v57.54a28.26,28.26,0,0,1-28.23,28.23H865.29a11.44,11.44,0,0,0-11.1,9.24l-13.05,83.45a11.34,11.34,0,0,1-11,8.93,12.08,12.08,0,0,1-2.35-.24A11.23,11.23,0,0,1,820.62,926.55Zm28.92,5.17a22.91,22.91,0,0,0,2.7-6.87L861.76,864H864v67.75ZM875.26,864h33.88v22.58H875.26Zm0,45.17V897.85h33.88v11.29Zm45.17,22.58V863.4a28.16,28.16,0,0,0,11.29-5.21v73.53Zm11.29-96a17,17,0,0,1-16.94,16.93H863.53l1.76-11.29h15.62a39.57,39.57,0,0,0,39.52-39.52V711.55a17,17,0,0,1,11.29-16V835.75Z" transform="translate(-591.73 -592.41)"/><rect class="cls-2" width="351.28" height="351.28"/></svg>