<?xml version="1.0" encoding="utf-8"?>
<!-- Generator: Adobe Illustrator 22.1.0, SVG Export Plug-In . SVG Version: 6.00 Build 0)  -->
<svg version="1.1" id="Capa_1" xmlns="http://www.w3.org/2000/svg" xmlns:xlink="http://www.w3.org/1999/xlink" x="0px" y="0px"
	 viewBox="0 0 506.9 506.8" style="enable-background:new 0 0 506.9 506.8;" xml:space="preserve">
<style type="text/css">
	.st0{fill:#FFFFFF;}
</style>
<title>logout</title>
<path class="st0" d="M0,245.5c0.9-8.8,1.6-17.7,2.9-26.4C11,160.2,37.1,110.5,80,69.6c14.8-14.1,31.4-26.3,49.3-36.3
	c10.6-5.9,18.4-1.5,18.4,10.5c0,22.8-0.1,45.5,0.1,68.3c0.1,6.2-2.1,10.6-6.5,14.7c-26.1,23.9-43.8,52.9-52.2,87.4
	c-19,77.9,20.5,158.5,94.3,192.6c92.9,42.9,203-5.5,231.6-103.6c20-68.7,2.3-128.2-50.9-176.6c-3.3-2.7-5.2-6.9-5-11.2
	c0.1-23.9,0-47.8,0.1-71.8c0-12,7.5-16.6,17.8-10.6C449.4,75,492,137.3,504.7,220.1c1,6.1,1.5,12.4,2.2,18.5v29.7
	c-0.4,1.4-0.7,2.9-0.9,4.3c-4.1,52.7-22.9,99.7-56.3,140.5c-71.7,87.4-189.9,117.8-293.8,73.4c-84.3-36-134.8-101-151.9-191.3
	C1.8,284,1.3,272.6,0,261.4L0,245.5z"/>
<path class="st0" d="M288.1,0c5.9,2.4,7.7,7,7.7,13c-0.1,75.7-0.1,151.5,0,227.2c0,9.9-3.3,13.2-13,13.2c-19.8,0-39.6,0-59.4,0
	c-8,0-12.2-4.1-12.2-12.2c0-76.2,0-152.5-0.1-228.7c0-5.9,2.1-10.2,7.7-12.5L288.1,0z"/>
</svg>
