<svg id="Layer_1" data-name="Layer 1" xmlns="http://www.w3.org/2000/svg" viewBox="0 0 417.94 512"><defs><style>.cls-1{fill:#29aae1;}</style></defs><title>other-order-icon</title><path class="cls-1" d="M157.66,102.61a8,8,0,0,0-8,8A17.64,17.64,0,1,1,132,93a8,8,0,1,0,0-16,33.67,33.67,0,1,0,33.67,33.67A8,8,0,0,0,157.66,102.61Z" transform="translate(-47.03)"/><path class="cls-1" d="M157.66,196.68a8,8,0,0,0-8,8A17.64,17.64,0,1,1,132,187.06a8,8,0,1,0,0-16,33.67,33.67,0,1,0,33.67,33.67A8,8,0,0,0,157.66,196.68Z" transform="translate(-47.03)"/><path class="cls-1" d="M251.72,213.78H191.87a8,8,0,1,0,0,16h59.85a8,8,0,1,0,0-16Z" transform="translate(-47.03)"/><path class="cls-1" d="M251.72,179.57H191.87a8,8,0,0,0,0,16h59.85a8,8,0,0,0,0-16Z" transform="translate(-47.03)"/><path class="cls-1" d="M234.62,307.84H191.87a8,8,0,0,0,0,16h42.75a8,8,0,0,0,0-16Z" transform="translate(-47.03)"/><path class="cls-1" d="M251.72,273.64H191.87a8,8,0,1,0,0,16h59.85a8,8,0,1,0,0-16Z" transform="translate(-47.03)"/><path class="cls-1" d="M328.68,119.72H191.87a8,8,0,1,0,0,16H328.68a8,8,0,1,0,0-16Z" transform="translate(-47.03)"/><path class="cls-1" d="M294.48,85.51H191.87a8,8,0,1,0,0,16H294.48a8,8,0,1,0,0-16Z" transform="translate(-47.03)"/><path class="cls-1" d="M157.66,290.74a8,8,0,0,0-8,8A17.64,17.64,0,1,1,132,281.12a8,8,0,1,0,0-16,33.67,33.67,0,1,0,33.67,33.67A8,8,0,0,0,157.66,290.74Z" transform="translate(-47.03)"/><path class="cls-1" d="M362.89,0H72.15A25.15,25.15,0,0,0,47,25.12V384.27a25.15,25.15,0,0,0,25.12,25.12H217.52a8,8,0,0,0,0-16H72.15a9.09,9.09,0,0,1-9.09-9.08V25.12A9.1,9.1,0,0,1,72.15,16H362.89A9.1,9.1,0,0,1,372,25.12V290.21a8,8,0,0,0,16,0V25.12A25.15,25.15,0,0,0,362.89,0Z" transform="translate(-47.03)"/><path class="cls-1" d="M438.58,325.09a29.56,29.56,0,0,0-20.79,5.85,29.21,29.21,0,0,0-22-14.4A29.56,29.56,0,0,0,375,322.39a29.19,29.19,0,0,0-22-14.4,29.62,29.62,0,0,0-16.37,3.07V209a29.41,29.41,0,0,0-32.4-29.25c-14.8,1.49-26.39,14.87-26.39,30.47V312.54l-23.56,23.57a50.42,50.42,0,0,0-13.52,47.53l17.89,76A67.61,67.61,0,0,0,324.79,512h72.3A68,68,0,0,0,465,444.13V355.56C465,340,453.38,326.58,438.58,325.09Zm10.35,119A51.9,51.9,0,0,1,397.09,496h-72.3a51.65,51.65,0,0,1-50.47-40l-17.89-76a34.56,34.56,0,0,1,9.25-32.52l12.23-12.23v27.68a8,8,0,0,0,16,0V210.19c0-7.47,5.25-13.84,11.95-14.51A13.37,13.37,0,0,1,320.67,209V350.06a8,8,0,1,0,16,0V337.24a13.41,13.41,0,0,1,4.4-9.91A13.27,13.27,0,0,1,351.47,324c6.7.67,12,7,12,14.51v20.15a8,8,0,1,0,16,0V345.79a13.35,13.35,0,0,1,14.77-13.29c6.7.67,11.95,7,11.95,14.51v20.15a8,8,0,0,0,16,0V354.34a13.41,13.41,0,0,1,4.4-9.92A13.26,13.26,0,0,1,437,341.05c6.71.67,12,7,12,14.51v88.57Z" transform="translate(-47.03)"/></svg>