<svg id="Layer_1" data-name="Layer 1" xmlns="http://www.w3.org/2000/svg" viewBox="0 0 351.28 351.28"><defs><style>.cls-1{fill:#00aeef;}.cls-2{fill:none;}</style></defs><title>past-history-icon</title><path class="cls-1" d="M630.27,722.21c0-71.57,58.22-129.8,129.79-129.8,59.26,0,109.23,39.94,124.74,94.29a20.5,20.5,0,0,0-5.37,11.37L878,709.39l-2.41,12.83H862.34a102.28,102.28,0,1,0-152.23,89.16l-20,20A129.69,129.69,0,0,1,630.27,722.21Zm129.79-81.53a13.76,13.76,0,0,0-13.75,13.76v67.77A13.75,13.75,0,0,0,760.06,736H837.9a13.76,13.76,0,1,0,0-27.51H773.82v-54A13.77,13.77,0,0,0,760.06,640.68Zm143.28,60.65a6.88,6.88,0,0,0-6.53-6.7,7,7,0,0,0-7.17,6l-1.47,11.73-2.57,13.7a104.34,104.34,0,0,1-4.2,15l-3.09,9-4.37,9.62a87.51,87.51,0,0,1-6.44,12.11c-1.28,2.13-2.56,4.28-3.77,6.48-1.27,1.71-2.5,3.44-3.73,5.2a113.37,113.37,0,0,1-10.39,13.17,122.63,122.63,0,0,1-12.34,12.61c-1.33,1.24-2.65,2.47-3.95,3.72q-2.19,1.66-4.35,3.35A124.23,124.23,0,0,1,814.3,826.7a103.67,103.67,0,0,1-13.46,7.48c-1.91.94-3.81,1.87-5.65,2.83-2.33.84-4.6,1.74-6.84,2.64A79.71,79.71,0,0,1,776,843.82l-9.09,2.53L758,847.87a79.29,79.29,0,0,1-12.43,1.44l-7.28.55-1,0v-32.1a6.88,6.88,0,0,0-11.75-4.87l-59.19,59.19a6.88,6.88,0,0,0,0,9.72L725.48,941a6.88,6.88,0,0,0,11.75-4.87V902.56l12.67-2.32A139,139,0,0,0,770,894.92l8.15-2.74,13.49-5.7A121.83,121.83,0,0,0,808,878c2.23-1.31,4.48-2.62,6.78-3.88.25-.14.48-.3.73-.46,1.79-1.3,3.61-2.57,5.45-3.85a140.9,140.9,0,0,0,16.21-12.47,162.26,162.26,0,0,0,16.49-15.86l3.72-3.91c.16-.17.31-.35.47-.53l3.36-4.26c4.58-5.76,9.34-11.74,12.92-17.87a138.88,138.88,0,0,0,10-17.53c1-2,2-4,3-5.92a6.66,6.66,0,0,0,.37-.82c.91-2.46,1.89-4.86,2.86-7.21a109.17,109.17,0,0,0,5.58-15.91l3.18-11.29,1.81-9.93a118.3,118.3,0,0,0,2.22-17.81l.67-9Z" transform="translate(-591.73 -592.41)"/><rect class="cls-2" width="351.28" height="351.28"/></svg>