<?xml version="1.0" encoding="utf-8"?>
<!-- Generator: Adobe Illustrator 22.1.0, SVG Export Plug-In . SVG Version: 6.00 Build 0)  -->
<svg version="1.1" id="Capa_1" xmlns="http://www.w3.org/2000/svg" xmlns:xlink="http://www.w3.org/1999/xlink" x="0px" y="0px"
	 viewBox="0 0 512 512" style="enable-background:new 0 0 512 512;" xml:space="preserve">
<style type="text/css">
	.st0{fill:#00ADEE;}
</style>
<g>
	<g>
		<path class="st0" d="M396.4,494l-53.7-53.7c-1.9-1.9-4.4-2.9-7.1-2.9c0,0,0,0,0,0l-28.8,0c-0.1,0-0.1,0-0.2,0
			c-15.9,0-31.8-2.9-46.8-8.5l17.3-11.6c7.1-4.7,11.8-12,13.4-20.4c1.6-8.4-0.3-16.8-5.2-23.8c-6.1-8.7-15.9-13.4-25.8-13.4
			c-0.2,0-0.3,0-0.5,0l39.8-39.8c12.1-12.1,12.1-31.7,0-43.8c-2.9-2.9-6.4-5.2-10.1-6.8c2.8-4.7,4.2-10.1,4.2-15.7
			c0-8.3-3.2-16.1-9.1-21.9c-5.9-5.9-13.6-9.1-21.9-9.1c-5.6,0-11,1.5-15.7,4.2c-1.5-3.7-3.8-7.2-6.8-10.1
			c-5.9-5.9-13.6-9.1-21.9-9.1s-16.1,3.2-21.9,9.1l-14.3,14.3c-1.5-3.4-3.6-6.4-6.3-9.1c-5.9-5.9-13.6-9.1-21.9-9.1
			s-16.1,3.2-21.9,9.1l-6.3,6.3l-25.8-25.6c-7.5-7.5-7.5-19.7,0-27.2c7-7,18.1-7.5,25.7-1.3l25,25c2,2,4.5,2.9,7.1,2.9
			s5.1-1,7.1-2.9c3.9-3.9,3.9-10.2,0-14.1L121,142c-7.5-7.5-7.5-19.7,0-27.2c7.5-7.5,19.7-7.5,27.2,0l75.4,75.6c2,2,4.5,2.9,7.1,2.9
			s5.1-1,7.1-2.9c3.9-3.9,3.9-10.2,0-14.1l-57.3-57.5c-6.1-7.5-5.7-18.7,1.3-25.7c7.5-7.5,19.7-7.5,27.2,0l21,21
			c3.9,3.9,10.2,3.9,14.1,0c3.9-3.9,3.9-10.2,0-14.1l-21-21c-15.3-15.3-40.2-15.3-55.4,0c-5.1,5.1-8.4,11.2-10.1,17.6
			c-6.6-4.8-14.5-7.4-22.9-7.4c-10.5,0-20.3,4.1-27.7,11.5c-13.8,13.8-15.1,35.3-4.1,50.6c-6.5,1.7-12.6,5.1-17.6,10.1
			c-14.4,14.4-15.2,37.4-2.4,52.8c-6.3,1.7-12.3,5.1-17.2,10c-15.3,15.3-15.3,40.2,0,55.4l4.5,4.5c-16.9,20.3-26,45.5-26,72.2
			l0,16.6l-41,41c-3.9,3.9-3.9,10.2,0,14.1c2,2,4.5,2.9,7.1,2.9s5.1-1,7.1-2.9l44-44c1.9-1.9,2.9-4.4,2.9-7.1l0-20.7
			c0-24.9,9.6-48.2,27.2-65.8l49.6-49.6c0,0,0,0,0,0l4.8-4.8c2.1-2.1,4.8-3.2,7.8-3.2s5.7,1.1,7.8,3.2c2.1,2.1,3.2,4.8,3.2,7.8
			c0,2.5-0.8,4.9-2.4,6.9L148.7,264c-3.9,3.9-3.9,10.2,0,14.1c0,0,0,0,0,0c0,0,0,0,0,0c2,2,4.5,2.9,7.1,2.9s5.1-1,7.1-2.9L210,231
			c2.1-2.1,4.8-3.2,7.8-3.2s5.7,1.1,7.8,3.2c4,4,4.3,10.3,0.8,14.6l-48,48.1c-3.9,3.9-3.9,10.2,0,14.1c2,2,4.5,2.9,7.1,2.9
			s5.1-1,7.1-2.9l61.8-61.9c2.1-2.1,4.8-3.2,7.8-3.2s5.7,1.1,7.8,3.2c4.3,4.3,4.3,11.3,0,15.5l-61.9,61.8c-3.9,3.9-3.9,10.2,0,14.1
			c3.9,3.9,10.2,3.9,14.1,0l48.1-48c4.3-3.4,10.6-3.2,14.6,0.8c4.3,4.3,4.3,11.3,0,15.5l-67.5,67.5c-4.8,4.8-5.2,12-1,17.3
			c4.1,5.3,11.3,6.6,17.1,3.1l20.4-12.4c5.1-3.1,11.9-1.7,15.3,3.2c1.8,2.5,2.4,5.6,1.9,8.7c-0.6,3-2.3,5.7-4.9,7.4l-47.2,31.6
			c-15.4,10.3-33.2,15.7-51.7,15.7c0,0-0.1,0-0.1,0l-32.1,0c0,0,0,0,0,0c-2.7,0-5.2,1.1-7.1,2.9l-44,44c-3.9,3.9-3.9,10.2,0,14.1
			c2,2,4.5,2.9,7.1,2.9s5.1-1,7.1-2.9l41-41l27.9,0c0.1,0,0.1,0,0.2,0c22.5,0,44.2-6.6,62.9-19.1l10.1-6.8
			c20.6,10,43.6,15.2,66.5,15.2c0.1,0,0.1,0,0.2,0l24.7,0l50.8,50.8c2,2,4.5,2.9,7.1,2.9s5.1-1,7.1-2.9
			C400.3,504.2,400.3,497.9,396.4,494z M104.4,249C104.4,249,104.4,249,104.4,249l-20.6,20.6l-4.1-4.1c-7.5-7.5-7.5-19.7,0-27.2
			c7-7,18.1-7.5,25.7-1.3l5.5,5.5L104.4,249z"/>
	</g>
</g>
<g>
	<g>
		<path class="st0" d="M509.1,381.4c-1.9-1.9-4.4-2.9-7.1-2.9s-5.2,1.1-7.1,2.9c-1.9,1.9-2.9,4.4-2.9,7.1c0,2.6,1.1,5.2,2.9,7.1
			c1.9,1.9,4.4,2.9,7.1,2.9s5.2-1.1,7.1-2.9c1.9-1.9,2.9-4.4,2.9-7.1C512,385.8,510.9,383.2,509.1,381.4z"/>
	</g>
</g>
<g>
	<g>
		<path class="st0" d="M482.2,354.5l-23.9-23.9l0.1-40.4c0-30.5-8.9-60.1-25.9-85.5l-44-65.6c-6-9-15.2-15-25.8-17
			c-10.6-2-21.3,0.3-30.2,6.5c-14.5,10.1-20.2,28.4-15.1,44.7l-26.1-26.1c-3.9-3.9-10.2-3.9-14.1,0c-3.9,3.9-3.9,10.2,0,14.1
			l56.1,56.1c5.2,5.2,13.2,5.7,18.9,1.1c5.8-4.5,7.2-12.4,3.4-18.7l-17.2-28.4c-5.4-8.9-2.9-20.6,5.6-26.5c4.4-3.1,9.7-4.2,15-3.3
			c5.3,1,9.8,4,12.8,8.5l44,65.6c14.8,22.1,22.6,47.8,22.6,74.3l-0.1,44.6c0,2.7,1,5.2,2.9,7.1l26.8,26.8c2,2,4.5,2.9,7.1,2.9
			s5.1-1,7.1-2.9C486.1,364.7,486.1,358.4,482.2,354.5z"/>
	</g>
</g>
<g>
	<g>
		<path class="st0" d="M267.7,123.6c-1.9-1.9-4.4-2.9-7.1-2.9c-2.6,0-5.2,1.1-7.1,2.9c-1.9,1.9-2.9,4.4-2.9,7.1
			c0,2.6,1.1,5.2,2.9,7.1c1.9,1.9,4.4,2.9,7.1,2.9c2.6,0,5.2-1.1,7.1-2.9c1.9-1.9,2.9-4.4,2.9-7.1S269.5,125.5,267.7,123.6z"/>
	</g>
</g>
<g>
	<g>
		<path class="st0" d="M360.5,278.8c3.9-3.9,3.9-10.2,0-14.1c-3.9-3.9-10.2-3.9-14.1,0L342,269c-18.7,18.7-18.7,49.1,0,67.7
			c2,2,4.5,2.9,7.1,2.9c2.6,0,5.1-1,7.1-2.9c3.9-3.9,3.9-10.2,0-14.1c-10.9-10.9-10.9-28.6,0-39.5L360.5,278.8z"/>
	</g>
</g>
<g>
	<g>
		<path class="st0" d="M477.3,54c-6.4,0-12.6,1.8-17.9,5.1c-5.4-3.3-11.6-5.1-17.9-5.1c-19.1,0-34.7,15.9-34.7,35.3
			c0,11,7.9,24.3,24.3,40.5c11,10.9,21.8,19.3,22.3,19.6c1.8,1.4,3.9,2.1,6.1,2.1s4.3-0.7,6.1-2.1c0.5-0.3,11.3-8.7,22.3-19.6
			c16.3-16.2,24.3-29.5,24.3-40.5C512,69.9,496.4,54,477.3,54z M459.4,128.7c-16.7-13.9-32.6-31.6-32.6-39.4
			c0-8.5,6.6-15.3,14.7-15.3c4,0,7.8,1.7,10.6,4.7c1.9,2.1,4.6,3.2,7.4,3.2s5.5-1.2,7.4-3.2c2.8-3,6.6-4.7,10.6-4.7
			c8.1,0,14.7,6.9,14.7,15.3C492,97.1,476.1,114.9,459.4,128.7z"/>
	</g>
</g>
<g>
	<g>
		<path class="st0" d="M70.6,0C64.2,0,58,1.8,52.6,5.1C47.3,1.8,41.1,0,34.7,0C15.6,0,0,15.9,0,35.3c0,11,7.9,24.3,24.3,40.5
			c11,10.9,21.8,19.3,22.3,19.6c1.8,1.4,3.9,2.1,6.1,2.1s4.3-0.7,6.1-2.1C59.2,95.1,70,86.8,81,75.9c16.3-16.2,24.3-29.5,24.3-40.5
			C105.3,15.9,89.7,0,70.6,0z M52.6,74.7C35.9,60.9,20,43.2,20,35.3C20,26.9,26.6,20,34.7,20c4,0,7.8,1.7,10.6,4.7
			c1.9,2.1,4.6,3.2,7.3,3.2s5.5-1.2,7.3-3.2c2.8-3,6.6-4.7,10.6-4.7c8.1,0,14.7,6.9,14.7,15.3C85.3,43.1,69.4,60.9,52.6,74.7z"/>
	</g>
</g>
</svg>
