<?xml version="1.0" encoding="utf-8"?>
<!-- Generator: Adobe Illustrator 22.1.0, SVG Export Plug-In . SVG Version: 6.00 Build 0)  -->
<svg version="1.1" id="Capa_1" xmlns="http://www.w3.org/2000/svg" xmlns:xlink="http://www.w3.org/1999/xlink" x="0px" y="0px"
	 viewBox="0 0 512 512" style="enable-background:new 0 0 512 512;" xml:space="preserve">
<style type="text/css">
	.st0{fill:#00ADEE;}
</style>
<g>
	<g>
		<path class="st0" d="M238.6,152H212v-26.6c0-5.5-4.5-10-10-10s-10,4.5-10,10V152h-26.6c-5.5,0-10,4.5-10,10s4.5,10,10,10H192v26.6
			c0,5.5,4.5,10,10,10s10-4.5,10-10V172h26.6c5.5,0,10-4.5,10-10S244.1,152,238.6,152z"/>
	</g>
</g>
<g>
	<g>
		<path class="st0" d="M202,74c-48.5,0-88,39.5-88,88s39.5,88,88,88s88-39.5,88-88S250.5,74,202,74z M202,230c-37.5,0-68-30.5-68-68
			s30.5-68,68-68s68,30.5,68,68S239.5,230,202,230z"/>
	</g>
</g>
<g>
	<g>
		<path class="st0" d="M401,91.9l-89-89C310.2,1.1,307.6,0,305,0H30C13.5,0,0,13.5,0,30v452c0,16.5,13.5,30,30,30h191
			c5.5,0,10-4.5,10-10s-4.5-10-10-10H30c-5.5,0-10-4.5-10-10V30c0-5.5,4.5-10,10-10h265v59c0,16.5,13.5,30,30,30h59v178
			c0,5.5,4.5,10,10,10s10-4.5,10-10V99C404,96.4,402.9,93.8,401,91.9z M325,89c-5.5,0-10-4.5-10-10V34.2L369.8,89
			C369.8,89,325,89,325,89z"/>
	</g>
</g>
<g>
	<g>
		<path class="st0" d="M330,280H156.3c-5.5,0-10,4.5-10,10s4.5,10,10,10H330c5.5,0,10-4.5,10-10C340,284.5,335.5,280,330,280z"/>
	</g>
</g>
<g>
	<g>
		<path class="st0" d="M106.6,280H74c-5.5,0-10,4.5-10,10s4.5,10,10,10h32.6c5.5,0,10-4.5,10-10S112.1,280,106.6,280z"/>
	</g>
</g>
<g>
	<g>
		<path class="st0" d="M256,336h-99.7c-5.5,0-10,4.5-10,10s4.5,10,10,10H256c5.5,0,10-4.5,10-10C266,340.5,261.5,336,256,336z"/>
	</g>
</g>
<g>
	<g>
		<path class="st0" d="M106.6,336H74c-5.5,0-10,4.5-10,10s4.5,10,10,10h32.6c5.5,0,10-4.5,10-10S112.1,336,106.6,336z"/>
	</g>
</g>
<g>
	<g>
		<path class="st0" d="M163.4,394.9c-1.9-1.9-4.4-2.9-7.1-2.9c-2.6,0-5.2,1.1-7.1,2.9c-1.9,1.9-2.9,4.4-2.9,7.1s1.1,5.2,2.9,7.1
			c1.9,1.9,4.4,2.9,7.1,2.9c2.6,0,5.2-1.1,7.1-2.9c1.9-1.9,2.9-4.4,2.9-7.1S165.3,396.8,163.4,394.9z"/>
	</g>
</g>
<g>
	<g>
		<path class="st0" d="M106.6,392H74c-5.5,0-10,4.5-10,10c0,5.5,4.5,10,10,10h32.6c5.5,0,10-4.5,10-10
			C116.6,396.5,112.1,392,106.6,392z"/>
	</g>
</g>
<g>
	<g>
		<path class="st0" d="M450,388c-2.9,0-5.8,0.2-8.6,0.6c6.3-21.1,1.1-45-15.5-61.6c-11.7-11.7-27.3-18.2-43.8-18.2
			c-16.6,0-32.1,6.4-43.8,18.2L259,406.1c-11.7,11.7-18.2,27.3-18.2,43.8c0,16.6,6.4,32.1,18.2,43.8c12.1,12.1,28,18.1,43.8,18.1
			c15.9,0,31.8-6,43.8-18.1l41.4-41.4c1.3,33.1,28.6,59.6,61.9,59.6c34.2,0,62-27.8,62-62S484.2,388,450,388z M332.5,479.7
			c-16.4,16.4-43,16.4-59.4,0c-7.9-7.9-12.3-18.5-12.3-29.7c0-11.2,4.4-21.8,12.3-29.7l32.5-32.5l59.4,59.4L332.5,479.7z M379.2,433
			l-59.4-59.4l32.5-32.5c7.9-7.9,18.5-12.3,29.7-12.3c11.2,0,21.8,4.4,29.7,12.3c16.4,16.4,16.4,43,0,59.4L379.2,433z M440,490.8
			c-18.3-4.5-32-21.1-32-40.8c0-19.7,13.7-36.3,32-40.8V490.8z M460,490.8v-81.6c18.3,4.5,32,21.1,32,40.8S478.3,486.3,460,490.8z"
			/>
	</g>
</g>
</svg>
