<svg id="Layer_1" data-name="Layer 1" xmlns="http://www.w3.org/2000/svg" viewBox="0 0 351.28 355.28"><defs><style>.cls-1{fill:none;}.cls-2{fill:#00aeef;}</style></defs><title>present-illness-icon</title><rect class="cls-1" width="351.28" height="351.28"/><path class="cls-2" d="M875.2,796.3c-6.16-14.53-12.31-29.06-18.59-43.54-4.85-11.16-9.44-22.18-8.39-34.94.53-6.41-.71-13.15-2.18-19.51-11.75-51-42.6-85.33-93.28-97.86-49.93-12.35-92.64,4-124.88,43.73C592.54,687.71,591.53,743,623,792.29a150.72,150.72,0,0,1,24.25,78.4c.59,22.15.23,44.33.39,66.49.06,8.15,2.38,10.5,10.36,10.51h5.06V932.44h-.16c0-7.12,0-14.09,0-21.06.07-27,1.67-54.32-7.12-80.3-5.56-16.42-12.21-32.88-21.1-47.68-26.87-44.75-25.91-94.39,5.53-132.64,24.51-29.82,57-42.08,95.28-38.27,47.64,4.75,84.43,37,95,83.7,2.38,10.54,1.76,21.73,2.83,32.59.45,4.51,1.07,9.21,2.76,13.36,7.59,18.62,15.58,37.07,23.84,56.55-6.49,2-11.93,4.09-17.55,5.42-6.93,1.63-10.18,5.79-9,12.61,1.53,9.09-1.94,13.76-10.87,15.87a81.2,81.2,0,0,0-18.28,7.1c-2.58,1.34-5.37,4.74-5.59,7.41-.19,2.18,2.82,5.66,5.25,6.85,9.32,4.54,19,8.38,28.74,12.59-2.07,7.1-7.3,8.83-13.06,8.89-18.75.2-37.51.37-56.25,0-15.31-.31-23.84-8.81-25.45-24.4-.53-5-2.77-8.71-8-8.5s-7.07,4.16-7,9.23c.41,19.63,19.2,38,39.68,38.62,3.62.11,7.25,0,11.37,0v21.55h0v35.76h4.71c9,0,10.46-1.53,10.48-10.77,0-15.27,0-30.54,0-46.54,10.7,0,20.63.16,30.55,0,14.27-.29,26.56-11.58,28.46-25.57.69-5.07-1-8.48-5.71-10.45-5.09-2.13-10.14-4.36-16.3-7,6.08-2.44,11.38-3.84,15.82-6.6a16,16,0,0,0,6.31-8.53c1.29-4.54-.8-11,1.73-13.95,2.87-3.3,9.24-3.55,14.08-5.13,1.39-.45,2.78-.88,4.17-1.31C878.08,808.68,879.31,806,875.2,796.3Z" transform="translate(-591.73 -592.41)"/><path class="cls-2" d="M930.22,814.59c7.47,4.18,10,11.6,7.18,18.67s-10.12,11.17-17.06,8.94c-11.28-3.63-22.42-7.73-33.47-12-1.66-.64-2.55-3.29-3.79-5,2-.6,4.25-2.17,5.88-1.66,10.38,3.25,20.63,6.92,30.88,10.54,4.88,1.72,9.08.67,10.5-4.28,1.34-4.68-.79-8.56-6.11-9.82-3.21-.76-7.76-.87-6.2-5.87,1.65-5.33,5.6-1.57,8.52-1.08A12.67,12.67,0,0,1,930.22,814.59Z" transform="translate(-591.73 -592.41)"/><path class="cls-2" d="M924.09,845.71a15.25,15.25,0,0,1-4.65-.73c-9.9-3.19-20.59-7-33.63-12.06-2.11-.81-3.25-2.85-4.17-4.48-.33-.58-.64-1.13-.93-1.53l-2.4-3.32,3.91-1.19c.46-.15,1-.39,1.62-.65,1.71-.75,3.84-1.69,6-1,9.53,3,19.09,6.37,28.34,9.64l2.63.93c2.05.73,3.8.8,4.93.22a3.81,3.81,0,0,0,1.79-2.55,5,5,0,0,0-.23-3.84,5.82,5.82,0,0,0-3.74-2.33l-1.22-.26c-2.34-.46-5.24-1-6.74-3.57a6.87,6.87,0,0,1-.36-5.75,6.65,6.65,0,0,1,3.39-4.38c2.4-1.13,4.85-.1,6.63.65a10.77,10.77,0,0,0,1.77.63,12.35,12.35,0,0,1,4.08,1.62l.34.18.2.11c8.5,4.76,11.9,13.73,8.46,22.31A17.63,17.63,0,0,1,924.09,845.71Zm-36.75-19.09a3.71,3.71,0,0,0,.68.9c12.83,5,23.42,8.74,33.21,11.9,5.23,1.68,11.15-1.5,13.46-7.25s.12-11.62-5.83-15l-.63-.34a7.32,7.32,0,0,0-2.17-.94,14.65,14.65,0,0,1-3.06-1,13.08,13.08,0,0,0-1.87-.68,3.73,3.73,0,0,0-.31.76,2.24,2.24,0,0,0-.17,1.08,12,12,0,0,0,2.83.77l1.43.3a11.24,11.24,0,0,1,7.43,5.07,10.51,10.51,0,0,1,.81,8.4,9.59,9.59,0,0,1-4.73,6.14c-2.62,1.35-5.92,1.38-9.55.1l-2.64-.94c-9.16-3.24-18.63-6.58-28-9.53A3.84,3.84,0,0,0,887.34,826.62Z" transform="translate(-591.73 -592.41)"/><path class="cls-2" d="M905.17,881.79c-12.29-4.59-22.31-8.16-32.15-12.17-1.91-.78-3.11-3.28-4.64-5,2.44-.58,5.22-2.22,7.25-1.56,10.1,3.29,20,7.17,30,10.88,6.24,2.32,10.12,6.55,10.12,13.49,0,6.69-3.16,11.61-9.31,14.23-6.52,2.78-12.34.15-17.8-3.23a3.93,3.93,0,0,1-1.09-3.67,4.3,4.3,0,0,1,3.43-2c2.08.14,4.07,1.19,6.13,1.77,4.76,1.35,9.39.71,10.46-4.57C908.12,887.07,905.76,883.59,905.17,881.79Z" transform="translate(-591.73 -592.41)"/><path class="cls-2" d="M900.86,905.76c-5.11,0-9.74-2.33-13.79-4.83a6.65,6.65,0,0,1-2.22-7.35,7.18,7.18,0,0,1,6.31-3.76,18.22,18.22,0,0,1,4.81,1.23c.63.24,1.26.47,1.9.65,2.35.67,4.33.66,5.44,0a3.08,3.08,0,0,0,1.36-2.32c.23-1.14-.73-3.18-1.37-4.53-.12-.25-.24-.5-.35-.75l-8.21-3c-8.36-3.09-15.57-5.76-22.82-8.72-2.08-.84-3.37-2.62-4.52-4.19a18.77,18.77,0,0,0-1.2-1.55l-3.28-3.66,4.78-1.14a21,21,0,0,0,2.07-.66c2.07-.75,4.43-1.59,6.77-.83,7.93,2.59,15.85,5.57,23.51,8.45l6.57,2.47c7.86,2.92,12,8.54,12,16.23,0,7.86-3.94,13.87-11.08,16.92A16.83,16.83,0,0,1,900.86,905.76Zm-10.39-9.6c5.3,3.24,9.87,4.92,14.8,2.82s7.52-6,7.52-11.54c0-5.25-2.61-8.67-8.21-10.75L898,874.22c-7.59-2.86-15.45-5.82-23.26-8.37a3.75,3.75,0,0,0-1.5.27,2.88,2.88,0,0,0,.9.79c7.16,2.92,14.33,5.57,22.64,8.64l9.43,3.5,1.32.5.43,1.34c.1.31.38.89.64,1.45,1,2.16,2.43,5.13,1.81,8.18a8.94,8.94,0,0,1-4,6.16c-2.56,1.56-6,1.78-10.07.65-.77-.22-1.54-.5-2.31-.78a14.27,14.27,0,0,0-3.1-.89,2.38,2.38,0,0,0-.48.24A2,2,0,0,0,890.47,896.16Zm.08.14Zm-.23-.79Z" transform="translate(-591.73 -592.41)"/><path class="cls-2" d="M877.79,849.45c-.5-1.15-1.24-2.88-2-4.6,2-.65,4.42-2.32,6.05-1.77q20.88,7,41.46,14.86c1.31.5,1.77,3.26,2.62,5-1.84.53-4,2-5.48,1.46-10.55-3.43-21-7.26-31.42-11Z" transform="translate(-591.73 -592.41)"/><path class="cls-2" d="M921.12,867.4a4.87,4.87,0,0,1-1.58-.25c-8-2.59-16-5.45-23.72-8.22l-7.76-2.76-12.45-4.39L871.84,843l3.08-1a16.32,16.32,0,0,0,1.68-.69c1.77-.81,4-1.81,6.18-1.06,13.43,4.51,27.41,9.52,41.57,14.9,2.16.82,3,3.07,3.6,4.88.2.55.41,1.13.6,1.51l1.57,3.13-3.37,1a15.32,15.32,0,0,0-1.49.58A11,11,0,0,1,921.12,867.4ZM880,847.12l10,3.54c2.59.91,5.18,1.84,7.77,2.77,7.66,2.73,15.58,5.56,23.42,8.11a4.7,4.7,0,0,0,.95-.3c-.11-.27-.22-.54-.31-.73-13.88-5.27-27.6-10.18-40.77-14.61a7,7,0,0,0-1.41.5Zm41.75,13.2Z" transform="translate(-591.73 -592.41)"/></svg>