<?xml version="1.0" encoding="utf-8"?>
<!-- Generator: Adobe Illustrator 22.1.0, SVG Export Plug-In . SVG Version: 6.00 Build 0)  -->
<svg version="1.1" id="Layer_1" xmlns="http://www.w3.org/2000/svg" xmlns:xlink="http://www.w3.org/1999/xlink" x="0px" y="0px"
	 viewBox="0 0 512 512" style="enable-background:new 0 0 512 512;" xml:space="preserve">
<style type="text/css">
	.st0{fill:#00ADEE;stroke:#231F20;stroke-width:0.4276;stroke-miterlimit:10;}
</style>
<path class="st0" d="M250.9,271.9c1.7,0.1,3.4,0.1,5.1,0.1c1.6,0,3.2,0,4.7-0.1c35.8,0.8,71,10.3,102.2,27.6
	c9.7,5.4,21.8,1.9,27.2-7.8s1.9-21.8-7.8-27.2c-14.3-8-29.4-14.5-44.9-19.7C370.5,220,392,180.5,392,136C392,61,331,0,256,0
	c-75,0-136,61-136,136c0,44.5,21.5,84.1,54.6,108.9c-30.4,10-58.9,25.5-83.8,46.1c-45.7,37.6-77.5,90.1-89.5,147.7
	c-3.8,18.1,0.7,36.6,12.4,50.9c11.6,14.2,28.7,22.4,47,22.4H217c11,0,20-9,20-20s-9-20-20-20H60.7c-8.5,0-13.7-4.8-16-7.6
	c-4-4.9-5.5-11.3-4.2-17.5C61.2,347.1,149.3,274.3,250.9,271.9z M160,136c0-52.9,43.1-96,96-96c52.9,0,96,43.1,96,96
	c0,51.3-40.5,93.4-91.2,95.9c-1.6,0-3.2-0.1-4.8-0.1c-1.6,0-3.1,0-4.7,0.1C200.6,229.4,160,187.4,160,136z M512,371.8
	c0,13.4-5.2,25.9-14.7,35.4l-37.2,37c-3.9,3.9-9,5.8-14.1,5.8c-5.1,0-10.3-2-14.2-5.9c-7.8-7.8-7.8-20.5,0.1-28.3l24.9-24.8H343.5
	c-22.3,0-40.5,18.2-40.5,40.5s17.9,40.5,40,40.5c11,0,20,9,20,20s-9,20-20,20c-21.5,0-41.7-8.4-56.8-23.7
	c-15-15.2-23.3-35.3-23.3-56.8c0-44.4,36.1-80.5,80.5-80.5H455l-23.1-22.8c-7.9-7.8-7.9-20.4-0.2-28.3c7.8-7.9,20.4-7.9,28.3-0.2
	l37.1,36.7C506.7,345.9,512,358.5,512,371.8z"/>
</svg>
