<svg id="Layer_1" data-name="Layer 1" xmlns="http://www.w3.org/2000/svg" viewBox="0 0 351.28 351.28"><defs><style>.cls-1{fill:none;}.cls-2{fill:#00aeef;}</style></defs><title>vital-icon</title><rect class="cls-1" width="351.28" height="351.28"/><path class="cls-2" d="M859.63,630.44c12.86,3.78,26.48,5.94,38.41,11.65,29.21,14,42.71,38.89,44.76,70.74,1.85,28.71-8.71,53.47-23.92,76.72-1.59,2.43-6.93,5-9,4-5.1-2.25-3.11-6.36-.6-10.43,10.14-16.4,18.7-33.46,21.23-53,5.15-39.75-15.44-72.75-52.2-83.52-43.66-12.79-89.24,5.82-109.65,45.23-3.8,7.34-5.09,15.94-8.28,23.64-1.36,3.28-4.88,8.34-7,8.13-6-.59-5.63-6-4.22-10.55,2.84-9.11,6.35-18,8.91-27.2.88-3.16,1.09-7.92-.67-10.18-29.22-37.45-91.84-44.51-127.65-13.33-23.16,20.17-29.12,47.45-21.25,76.36,4.33,15.91,13.43,30.5,19.87,45.89,1,2.49-.61,6.11-1,9.2-2.79-.86-6.91-.83-8.19-2.72-19.7-29.07-30.84-60.31-22.37-96,7.87-33.15,36.19-58.14,71-63,2.62-.36,5.19-1.14,7.78-1.73h18c10.67,2.76,21.59,4.81,32,8.43,17,5.93,30.8,16.93,42.47,30.56,15.48-16.64,25.7-24.66,43.24-31,10.32-3.73,21.38-5.4,32.11-8Z" transform="translate(-591.73 -592.41)"/><path class="cls-2" d="M765.79,906.54C734,896.79,709,876,684.27,855.08c-2-1.68-1.38-6.46-2-9.8,3.42.5,7.61-.1,10.13,1.68,16.4,11.58,32.42,23.68,48.59,35.57,1.69,1.24,3.64,2.11,5.38,3.28,15.17,10.19,30.21,10.13,45-.63,18.68-13.54,37.25-27.22,55.93-40.77,3.38-2.45,6.83-7.79,11.36-2.67s.12,9.1-3.74,11.88c-21.16,15.2-42.29,30.45-63.89,45-5.78,3.9-13.2,5.36-19.87,7.93Z" transform="translate(-591.73 -592.41)"/><path class="cls-2" d="M755.74,825.53c5.09-10.3,9.6-19.72,14.37-29,4.47-8.69,8.4-8.84,14-.63,4.57,6.63,9,13.39,14.18,21.24,9.68-10.79,18.78-21,27.94-31.12s9.6-10.24,19.57-.38,20,20,30.2,29.71a10.27,10.27,0,0,0,6.68,2.78c9.17-.31,18.34-1.7,27.5-1.57,2.86,0,5.68,3.6,8.51,5.55-2.89,1.83-5.65,4.9-8.72,5.25-9.36,1.1-19-1.33-28,4.45-1.8,1.16-7.38-1.27-9.72-3.58-11.74-11.54-23-23.6-35-36.15C825.44,805,815,816.46,804.42,827.85c-6.32,6.81-8.62,6.7-13.86-.73-4.11-5.84-8-11.86-12.78-19.07-5.18,10.45-9.51,19.82-14.48,28.84-1.69,3.08-5,5.27-7.55,7.87-2.4-2.43-5.53-4.45-7.07-7.34-12.5-23.51-24.7-47.19-37.69-72.16-5.74,10.47-11,19.92-16.12,29.43-4.85,8.95-9.1,18.28-14.64,26.77-2.2,3.36-7.07,6.66-10.94,6.94a289.69,289.69,0,0,1-36.92.06c-3.18-.19-6.17-3.88-9.25-6,3.13-2,6.12-5.42,9.42-5.75a117.85,117.85,0,0,1,25.19,0c9.3,1.09,14-2.82,17.92-10.71,8.89-17.67,18.49-35,28.13-52.27,1.56-2.8,4.87-6.46,7.31-6.42s5.78,3.69,7.29,6.52C730.87,777.35,743,801,755.74,825.53Z" transform="translate(-591.73 -592.41)"/></svg>