<svg viewBox="-54 0 512 512" xmlns="http://www.w3.org/2000/svg"><path d="m339.015625 76.007812h-274.292969c-31.601562 0-57.222656 25.621094-57.222656 57.222657v314.046875c0 31.601562 25.621094 57.222656 57.222656 57.222656h274.292969c31.601563 0 57.222656-25.621094 57.222656-57.222656v-314.042969c0-31.605469-25.621093-57.226563-57.222656-57.226563zm0 0" fill="#6ee3ff"/><path d="m348.941406 76.886719c-3.222656-.566407-6.539062-.878907-9.925781-.878907h-274.292969c-3.386718 0-6.699218.3125-9.925781.878907v33.472656c0 26.492187 21.550781 48.046875 48.046875 48.046875h198.054688c26.492187 0 48.042968-21.554688 48.042968-48.046875zm0 0" fill="#42c3e2"/><path d="m326.789062 110.359375h-249.839843c-13.246094 0-23.984375 10.738281-23.984375 23.984375v307.011719c0 13.246093 10.734375 23.984375 23.984375 23.984375h249.84375c13.246093 0 23.984375-10.738282 23.984375-23.984375v-307.011719c0-13.246094-10.738282-23.984375-23.988282-23.984375zm0 0" fill="#efedee"/><path d="m310.839844 224.667969h-31.507813v-31.503907c0-3.234374-2.621093-5.855468-5.855469-5.855468h-28.957031c-3.234375 0-5.855469 2.621094-5.855469 5.855468v31.503907h-31.503906c-3.234375 0-5.855468 2.621093-5.855468 5.855469v28.957031c0 3.234375 2.621093 5.855469 5.855468 5.855469h31.503906v31.507812c0 3.230469 2.621094 5.851562 5.855469 5.851562h28.957031c3.234376 0 5.855469-2.621093 5.855469-5.851562v-31.507812h31.507813c3.234375 0 5.855468-2.621094 5.855468-5.855469v-28.957031c0-3.234376-2.625-5.855469-5.855468-5.855469zm0 0" fill="#fd6f71"/><path d="m347.464844 122.1875c-4.167969-7.074219-11.863282-11.828125-20.671875-11.828125h-249.84375c-8.808594 0-16.503907 4.753906-20.675781 11.828125 5.285156 20.792969 24.15625 36.21875 46.570312 36.21875h198.054688c22.410156 0 41.285156-15.425781 46.566406-36.21875zm0 0" fill="#d2d2d2"/><path d="m300.898438 55.726562h-50.800782c0-26.632812-21.59375-48.226562-48.226562-48.226562-26.636719 0-48.226563 21.59375-48.226563 48.226562h-50.800781c-9.964844 0-18.046875 8.082032-18.046875 18.046876v36.585937c0 9.964844 8.082031 18.046875 18.046875 18.046875h198.054688c9.964843 0 18.046874-8.082031 18.046874-18.046875v-36.585937c-.003906-9.964844-8.082031-18.046876-18.046874-18.046876zm0 0" fill="#b8b8b8"/><path d="m135.691406 75.382812c-4.140625 0-7.5 3.355469-7.5 7.5v11.976563c0 4.140625 3.359375 7.5 7.5 7.5 4.144532 0 7.5-3.359375 7.5-7.5v-11.976563c0-4.144531-3.355468-7.5-7.5-7.5zm0 0"/><path d="m268.046875 75.382812c-4.140625 0-7.5 3.355469-7.5 7.5v11.976563c0 4.140625 3.359375 7.5 7.5 7.5 4.144531 0 7.5-3.359375 7.5-7.5v-11.976563c0-4.144531-3.355469-7.5-7.5-7.5zm0 0"/><path d="m223.140625 88.378906c-3.121094-2.726562-7.855469-2.410156-10.582031.710938-2.589844 2.960937-6.488282 4.664062-10.691406 4.664062-4.199219 0-8.09375-1.699218-10.683594-4.664062-2.730469-3.117188-7.464844-3.4375-10.585938-.710938-3.117187 2.726563-3.4375 7.464844-.710937 10.582032 5.441406 6.222656 13.453125 9.792968 21.980469 9.792968 8.53125 0 16.542968-3.570312 21.980468-9.792968 2.730469-3.117188 2.410156-7.855469-.707031-10.582032zm0 0"/><path d="m213.636719 41.9375c0 6.5-5.269531 11.765625-11.765625 11.765625-6.5 0-11.769532-5.265625-11.769532-11.765625s5.269532-11.765625 11.769532-11.765625c6.496094 0 11.765625 5.265625 11.765625 11.765625zm0 0"/><path d="m324.195312 259.480469v-28.957031c0-7.363282-5.992187-13.355469-13.355468-13.355469h-24.007813v-24.003907c0-7.363281-5.988281-13.355468-13.355469-13.355468h-28.957031c-7.363281 0-13.355469 5.992187-13.355469 13.355468v24.003907h-24.003906c-7.363281 0-13.355468 5.992187-13.355468 13.355469v28.957031c0 7.363281 5.992187 13.355469 13.355468 13.355469h24.003906v24.003906c0 7.363281 5.992188 13.355468 13.355469 13.355468h28.957031c7.367188 0 13.355469-5.992187 13.355469-13.355468v-24.003906h24.007813c7.363281 0 13.355468-5.992188 13.355468-13.355469zm-15-1.644531h-29.863281c-4.140625 0-7.5 3.359374-7.5 7.5v29.859374h-25.667969v-29.859374c0-4.140626-3.355468-7.5-7.5-7.5h-29.859374v-25.667969h29.859374c4.144532 0 7.5-3.355469 7.5-7.5v-29.859375h25.667969v29.859375c0 4.144531 3.359375 7.5 7.5 7.5h29.863281zm0 0"/><path d="m87.046875 212.546875h74.917969c4.140625 0 7.5-3.359375 7.5-7.5 0-4.144531-3.359375-7.5-7.5-7.5h-74.917969c-4.144531 0-7.5 3.355469-7.5 7.5 0 4.140625 3.355469 7.5 7.5 7.5zm0 0"/><path d="m87.046875 256.390625h74.917969c4.140625 0 7.5-3.359375 7.5-7.5 0-4.144531-3.359375-7.5-7.5-7.5h-74.917969c-4.144531 0-7.5 3.355469-7.5 7.5 0 4.140625 3.355469 7.5 7.5 7.5zm0 0"/><path d="m87.046875 300.230469h74.917969c4.140625 0 7.5-3.355469 7.5-7.5 0-4.140625-3.359375-7.5-7.5-7.5h-74.917969c-4.144531 0-7.5 3.359375-7.5 7.5 0 4.144531 3.355469 7.5 7.5 7.5zm0 0"/><path d="m283.375 329.074219h-196.328125c-4.144531 0-7.5 3.359375-7.5 7.5 0 4.144531 3.355469 7.5 7.5 7.5h196.328125c4.140625 0 7.5-3.355469 7.5-7.5 0-4.140625-3.359375-7.5-7.5-7.5zm0 0"/><path d="m283.375 372.917969h-196.328125c-4.144531 0-7.5 3.359375-7.5 7.5s3.355469 7.5 7.5 7.5h196.328125c4.140625 0 7.5-3.359375 7.5-7.5s-3.359375-7.5-7.5-7.5zm0 0"/><path d="m64.722656 512h274.292969c35.6875 0 64.722656-29.035156 64.722656-64.722656v-314.042969c0-35.691406-29.035156-64.726563-64.722656-64.726563h-13.121094c-2.433593-11.566406-12.714843-20.28125-24.996093-20.28125h-43.804688c-3.671875-27.195312-27.039062-48.226562-55.222656-48.226562-28.1875 0-51.550782 21.03125-55.226563 48.226562h-43.800781c-12.285156 0-22.566406 8.714844-25 20.28125h-13.121094c-35.6875 0-64.722656 29.035157-64.722656 64.726563v40.324219c0 4.140625 3.359375 7.5 7.5 7.5s7.5-3.359375 7.5-7.5v-40.324219c0-27.417969 22.304688-49.726563 49.722656-49.726563h12.574219v19.351563h-.347656c-17.363281 0-31.484375 14.125-31.484375 31.484375v307.011719c0 17.359375 14.121094 31.484375 31.484375 31.484375h249.84375c17.359375 0 31.484375-14.125 31.484375-31.484375v-45.796875c0-4.140625-3.359375-7.5-7.5-7.5-4.144532 0-7.5 3.359375-7.5 7.5v45.796875c0 9.085937-7.394532 16.484375-16.484375 16.484375h-249.84375c-9.089844 0-16.484375-7.398438-16.484375-16.484375v-307.011719c0-9.089844 7.394531-16.484375 16.484375-16.484375h1.46875c.003906.007813.007812.019531.011719.03125 2.167968 7.003906 7.417968 12.835937 14.105468 15.824219 3.238282 1.445312 6.757813 2.191406 10.308594 2.191406h198.054688c7.941406 0 15.6875-3.925781 20.453124-10.269531 1.761719-2.351563 3.042969-4.960938 3.957032-7.746094.003906-.011719.007812-.023437.011718-.03125h1.472657c9.089843 0 16.484375 7.394531 16.484375 16.484375v231.214844c0 4.140625 3.359375 7.5 7.5 7.5s7.5-3.359375 7.5-7.5v-231.214844c0-17.359375-14.125-31.484375-31.484375-31.484375h-.347657v-19.351563h12.570313c27.417969 0 49.722656 22.308594 49.722656 49.726563v314.042969c0 27.417968-22.304687 49.722656-49.722656 49.722656h-274.292969c-27.414062 0-49.722656-22.304688-49.722656-49.722656v-243.71875c0-4.140625-3.355469-7.5-7.5-7.5-4.140625 0-7.5 3.359375-7.5 7.5v243.71875c0 35.6875 29.035156 64.722656 64.722656 64.722656zm38.121094-391.09375c-.363281 0-.726562-.019531-1.078125-.054688-5.3125-.542968-9.46875-5.042968-9.46875-10.492187 0 0 0-34.351563 0-34.355469 0-6.472656 3.144531-12.777344 10.546875-12.777344h50.796875c4.144531 0 7.5-3.359374 7.5-7.5.003906-22.457031 18.273437-40.726562 40.730469-40.726562 22.457031 0 40.726562 18.269531 40.726562 40.726562 0 4.140626 3.359375 7.5 7.5 7.5h50.800782c6.859374 0 11.1875 6.347657 10.546874 12.78125v34.351563c0 5.6875-4.859374 10.546875-10.546874 10.546875zm0 0"/></svg>