<svg xmlns="http://www.w3.org/2000/svg" width="65" height="65" viewBox="0 0 65 65">
  <metadata><?xpacket begin="﻿" id="W5M0MpCehiHzreSzNTczkc9d"?>
<x:xmpmeta xmlns:x="adobe:ns:meta/" x:xmptk="Adobe XMP Core 5.6-c142 79.160924, 2017/07/13-01:06:39        ">
   <rdf:RDF xmlns:rdf="http://www.w3.org/1999/02/22-rdf-syntax-ns#">
      <rdf:Description rdf:about=""/>
   </rdf:RDF>
</x:xmpmeta>
                                                                                                    
                                                                                                    
                                                                                                    
                                                                                                    
                                                                                                    
                                                                                                    
                                                                                                    
                                                                                                    
                                                                                                    
                                                                                                    
                                                                                                    
                                                                                                    
                                                                                                    
                                                                                                    
                                                                                                    
                                                                                                    
                                                                                                    
                                                                                                    
                                                                                                    
                                                                                                    
                           
<?xpacket end="w"?></metadata>
<defs>
    <style>
      .cls-1 {
        fill: #32a8ff;
        fill-rule: evenodd;
      }
    </style>
  </defs>
  <path id="Forma_1" data-name="Forma 1" class="cls-1" d="M17.347,19.913h27.39a1.244,1.244,0,1,0,0-2.488H17.347A1.244,1.244,0,1,0,17.347,19.913Zm14.94,12.44H17.347a1.244,1.244,0,1,0,0,2.488h14.94A1.244,1.244,0,1,0,32.287,32.352ZM58.645,9.962c-0.072,0-.142.018-0.214,0.021V9.962a4.984,4.984,0,0,0-4.98-4.976H8.632a4.983,4.983,0,0,0-4.98,4.976V58.475a1.245,1.245,0,0,0,2.125.879L17.862,47.28H53.451a4.984,4.984,0,0,0,4.98-4.976V21.671l3.584-3.58h0A4.76,4.76,0,0,0,58.645,9.962ZM55.941,42.3a2.491,2.491,0,0,1-2.49,2.488h-36.1a1.246,1.246,0,0,0-.88.364L6.142,55.472V9.962a2.491,2.491,0,0,1,2.49-2.488H53.451a2.491,2.491,0,0,1,2.49,2.488v0.85a4.684,4.684,0,0,0-.666.545L41.729,24.889H17.347a1.244,1.244,0,1,0,0,2.488H39.731l-1.2,5.975a1.244,1.244,0,0,0,1.221,1.488A1.284,1.284,0,0,0,40,34.816l6.223-1.244a1.238,1.238,0,0,0,.637-0.34l9.082-9.073V42.3Zm-10.575-11.1-4.022.8,0.8-4.024L53.451,16.7l3.22,3.217ZM60.255,16.332l-1.824,1.822-3.22-3.217,1.825-1.823A2.276,2.276,0,0,1,60.255,16.332Z"/>
</svg>
