<?xml version="1.0" encoding="utf-8"?>
<!-- Generator: Adobe Illustrator 20.1.0, SVG Export Plug-In . SVG Version: 6.00 Build 0)  -->
<svg version="1.1" id="Layer_1" xmlns="http://www.w3.org/2000/svg" xmlns:xlink="http://www.w3.org/1999/xlink" x="0px" y="0px"
	 viewBox="0 0 150 150" style="enable-background:new 0 0 150 150;" xml:space="preserve">
<style type="text/css">
	.st0{fill:#808285;}
	.st1{fill:#FFFFFF;}
	.st2{fill:#F37021;}
</style>
<g>
	<path class="st0" d="M108.8,147.9H19.4c-5.5,0-10-4.5-10-10V13.2c0-5.5,4.5-10,10-10h89.5c5.5,0,10,4.5,10,10v124.7
		C118.8,143.4,114.3,147.9,108.8,147.9z"/>
	<rect x="20.9" y="14.6" class="st1" width="86.4" height="122"/>
	<circle class="st2" cx="113.3" cy="59.1" r="29.7"/>
	<g>
		<rect x="96.3" y="55.6" class="st1" width="33.9" height="7.1"/>
		<rect x="109.8" y="42.1" class="st1" width="7.1" height="33.9"/>
	</g>
	<rect x="32.5" y="107.9" class="st0" width="61.9" height="11.6"/>
	<rect x="32.5" y="82.6" class="st0" width="49" height="11.6"/>
	<rect x="32.5" y="58.6" class="st0" width="35.9" height="11.6"/>
	<rect x="32.5" y="33.3" class="st0" width="32.3" height="11.6"/>
</g>
</svg>
