<svg id="Layer_1" data-name="Layer 1" xmlns="http://www.w3.org/2000/svg" viewBox="0 0 350.54 347.58"><defs><style>.cls-1{fill:#2bace2;}</style></defs><title>orders-procedures-icon</title><path class="cls-1" d="M592.74,901.58A40.44,40.44,0,0,0,633.19,942H902.83a40.44,40.44,0,0,0,40.45-40.44V634.89a40.45,40.45,0,0,0-40.45-40.45H633.19a40.45,40.45,0,0,0-40.45,40.45m242.68-13.48h27v34.86l-3.95-3.95a13.5,13.5,0,0,0-19.07,0l-4,3.95Zm80.9,280.17a13.49,13.49,0,0,1-13.49,13.48H633.19a13.49,13.49,0,0,1-13.49-13.48V634.89a13.48,13.48,0,0,1,13.49-13.48H808.46v67.41a13.48,13.48,0,0,0,23,9.53l17.43-17.43,17.44,17.43a13.45,13.45,0,0,0,9.53,3.95,13.23,13.23,0,0,0,5.16-1,13.49,13.49,0,0,0,8.32-12.46V621.41h13.48a13.48,13.48,0,0,1,13.49,13.48Z" transform="translate(-592.74 -594.44)"/><path class="cls-1" d="M676.38,763.39l-12.3-12.3-13.46,13.45,19,19a9.53,9.53,0,0,0,13.46,0l38.07-38.07-13.46-13.46Z" transform="translate(-592.74 -594.44)"/><path class="cls-1" d="M676.38,868.08l-12.3-12.31-13.46,13.46,19,19a9.53,9.53,0,0,0,13.46,0l38.07-38.07-13.46-13.46Z" transform="translate(-592.74 -594.44)"/><path class="cls-1" d="M743,767.33H885v19H743Z" transform="translate(-592.74 -594.44)"/><path class="cls-1" d="M743,872H885v19H743Z" transform="translate(-592.74 -594.44)"/><path class="cls-1" d="M743,834H885v19H743Z" transform="translate(-592.74 -594.44)"/><path class="cls-1" d="M743,729.27h19v19H743Z" transform="translate(-592.74 -594.44)"/><path class="cls-1" d="M781.07,729.27H885v19H781.07Z" transform="translate(-592.74 -594.44)"/></svg>