<?xml version="1.0" encoding="utf-8"?>
<!-- Generator: Adobe Illustrator 20.1.0, SVG Export Plug-In . SVG Version: 6.00 Build 0)  -->
<svg version="1.1" id="Layer_1" xmlns="http://www.w3.org/2000/svg" xmlns:xlink="http://www.w3.org/1999/xlink" x="0px" y="0px"
	 viewBox="0 0 150 150" style="enable-background:new 0 0 150 150;" xml:space="preserve">
<style type="text/css">
	.st0{fill:#808285;}
	.st1{fill:#FFFFFF;}
	.st2{fill:#F37021;}
</style>
<g>
	<path class="st0" d="M115.1,5.6H19.9C19.9,5.6,5,6.3,5,22.2v111.4c0,0,3.3,12,15.3,12h111.9c0,0,10.6-1.1,12.8-14.6V34.6L115.1,5.6
		z"/>
	<path class="st1" d="M109.9,13.1h-85c0,0-13.4,0.7-13.4,14.7V126c0,0,2.9,10.6,13.7,10.6h100c0,0,9.4-1,11.4-12.9v-85L109.9,13.1z"
		/>
	<path class="st0" d="M109.9,12.9V48c0,0-1.3,14.5-14.5,14.5H44.6c0,0-14-0.9-14-14V12.9H109.9z"/>
	<path class="st1" d="M103.9,13.1v31c0,0-1.1,12.9-12.1,12.9H49.4c0,0-11.7-0.8-11.7-12.4V13.1H103.9z"/>
	<path class="st2" d="M87.5,44.7L87.5,44.7c-3.7,0-6.8-4.2-6.8-9.3V13.1c4.9,0,3.1,0,6.8,0l0,0c3.7,0,2.4,0,6.8,0v22.3
		C94.3,40.5,91.2,44.7,87.5,44.7z"/>
</g>
</svg>
